<svg width="49" height="17" viewBox="0 0 49 17" fill="none" xmlns="http://www.w3.org/2000/svg">
<path d="M38.1641 13.6719C37.8906 13.6719 37.6595 13.5775 37.4707 13.3887C37.2819 13.1934 37.1875 12.9622 37.1875 12.6953C37.1875 12.4284 37.2819 12.2005 37.4707 12.0117C37.6595 11.8164 37.8906 11.7188 38.1641 11.7188C38.431 11.7188 38.6589 11.8164 38.8477 12.0117C39.043 12.2005 39.1406 12.4284 39.1406 12.6953C39.1406 12.9622 39.043 13.1934 38.8477 13.3887C38.6589 13.5775 38.431 13.6719 38.1641 13.6719ZM38.1641 11.3281C37.8906 11.3281 37.6595 11.2337 37.4707 11.0449C37.2819 10.8496 37.1875 10.6185 37.1875 10.3516C37.1875 10.0846 37.2819 9.85677 37.4707 9.66797C37.6595 9.47266 37.8906 9.375 38.1641 9.375C38.431 9.375 38.6589 9.47266 38.8477 9.66797C39.043 9.85677 39.1406 10.0846 39.1406 10.3516C39.1406 10.6185 39.043 10.8496 38.8477 11.0449C38.6589 11.2337 38.431 11.3281 38.1641 11.3281ZM38.1641 6.64062C37.8906 6.64062 37.6595 6.54622 37.4707 6.35742C37.2819 6.16211 37.1875 5.93099 37.1875 5.66406C37.1875 5.39714 37.2819 5.16927 37.4707 4.98047C37.6595 4.78516 37.8906 4.6875 38.1641 4.6875C38.431 4.6875 38.6589 4.78516 38.8477 4.98047C39.043 5.16927 39.1406 5.39714 39.1406 5.66406C39.1406 5.93099 39.043 6.16211 38.8477 6.35742C38.6589 6.54622 38.431 6.64062 38.1641 6.64062ZM38.1641 4.29688C37.8906 4.29688 37.6595 4.20247 37.4707 4.01367C37.2819 3.81836 37.1875 3.58724 37.1875 3.32031C37.1875 3.05339 37.2819 2.82552 37.4707 2.63672C37.6595 2.44141 37.8906 2.34375 38.1641 2.34375C38.431 2.34375 38.6589 2.44141 38.8477 2.63672C39.043 2.82552 39.1406 3.05339 39.1406 3.32031C39.1406 3.58724 39.043 3.81836 38.8477 4.01367C38.6589 4.20247 38.431 4.29688 38.1641 4.29688ZM40.5078 16.0156C40.2344 16.0156 40.0033 15.9212 39.8145 15.7324C39.6257 15.5371 39.5312 15.306 39.5312 15.0391C39.5312 14.7721 39.6257 14.5443 39.8145 14.3555C40.0033 14.1602 40.2344 14.0625 40.5078 14.0625C40.7747 14.0625 41.0026 14.1602 41.1914 14.3555C41.3867 14.5443 41.4844 14.7721 41.4844 15.0391C41.4844 15.306 41.3867 15.5371 41.1914 15.7324C41.0026 15.9212 40.7747 16.0156 40.5078 16.0156ZM40.5078 8.98438C40.2344 8.98438 40.0033 8.88997 39.8145 8.70117C39.6257 8.50586 39.5312 8.27474 39.5312 8.00781C39.5312 7.74089 39.6257 7.51302 39.8145 7.32422C40.0033 7.12891 40.2344 7.03125 40.5078 7.03125C40.7747 7.03125 41.0026 7.12891 41.1914 7.32422C41.3867 7.51302 41.4844 7.74089 41.4844 8.00781C41.4844 8.27474 41.3867 8.50586 41.1914 8.70117C41.0026 8.88997 40.7747 8.98438 40.5078 8.98438ZM40.5078 1.95312C40.2344 1.95312 40.0033 1.85872 39.8145 1.66992C39.6257 1.47461 39.5312 1.24349 39.5312 0.976562C39.5312 0.709635 39.6257 0.481771 39.8145 0.292969C40.0033 0.0976562 40.2344 0 40.5078 0C40.7747 0 41.0026 0.0976562 41.1914 0.292969C41.3867 0.481771 41.4844 0.709635 41.4844 0.976562C41.4844 1.24349 41.3867 1.47461 41.1914 1.66992C41.0026 1.85872 40.7747 1.95312 40.5078 1.95312ZM42.8516 16.0156C42.5781 16.0156 42.347 15.9212 42.1582 15.7324C41.9694 15.5371 41.875 15.306 41.875 15.0391C41.875 14.7721 41.9694 14.5443 42.1582 14.3555C42.347 14.1602 42.5781 14.0625 42.8516 14.0625C43.1185 14.0625 43.3464 14.1602 43.5352 14.3555C43.7305 14.5443 43.8281 14.7721 43.8281 15.0391C43.8281 15.306 43.7305 15.5371 43.5352 15.7324C43.3464 15.9212 43.1185 16.0156 42.8516 16.0156ZM42.8516 8.98438C42.5781 8.98438 42.347 8.88997 42.1582 8.70117C41.9694 8.50586 41.875 8.27474 41.875 8.00781C41.875 7.74089 41.9694 7.51302 42.1582 7.32422C42.347 7.12891 42.5781 7.03125 42.8516 7.03125C43.1185 7.03125 43.3464 7.12891 43.5352 7.32422C43.7305 7.51302 43.8281 7.74089 43.8281 8.00781C43.8281 8.27474 43.7305 8.50586 43.5352 8.70117C43.3464 8.88997 43.1185 8.98438 42.8516 8.98438ZM42.8516 1.95312C42.5781 1.95312 42.347 1.85872 42.1582 1.66992C41.9694 1.47461 41.875 1.24349 41.875 0.976562C41.875 0.709635 41.9694 0.481771 42.1582 0.292969C42.347 0.0976562 42.5781 0 42.8516 0C43.1185 0 43.3464 0.0976562 43.5352 0.292969C43.7305 0.481771 43.8281 0.709635 43.8281 0.976562C43.8281 1.24349 43.7305 1.47461 43.5352 1.66992C43.3464 1.85872 43.1185 1.95312 42.8516 1.95312ZM45.1953 16.0156C44.9219 16.0156 44.6908 15.9212 44.502 15.7324C44.3132 15.5371 44.2188 15.306 44.2188 15.0391C44.2188 14.7721 44.3132 14.5443 44.502 14.3555C44.6908 14.1602 44.9219 14.0625 45.1953 14.0625C45.4622 14.0625 45.6901 14.1602 45.8789 14.3555C46.0742 14.5443 46.1719 14.7721 46.1719 15.0391C46.1719 15.306 46.0742 15.5371 45.8789 15.7324C45.6901 15.9212 45.4622 16.0156 45.1953 16.0156ZM45.1953 8.98438C44.9219 8.98438 44.6908 8.88997 44.502 8.70117C44.3132 8.50586 44.2188 8.27474 44.2188 8.00781C44.2188 7.74089 44.3132 7.51302 44.502 7.32422C44.6908 7.12891 44.9219 7.03125 45.1953 7.03125C45.4622 7.03125 45.6901 7.12891 45.8789 7.32422C46.0742 7.51302 46.1719 7.74089 46.1719 8.00781C46.1719 8.27474 46.0742 8.50586 45.8789 8.70117C45.6901 8.88997 45.4622 8.98438 45.1953 8.98438ZM45.1953 1.95312C44.9219 1.95312 44.6908 1.85872 44.502 1.66992C44.3132 1.47461 44.2188 1.24349 44.2188 0.976562C44.2188 0.709635 44.3132 0.481771 44.502 0.292969C44.6908 0.0976562 44.9219 0 45.1953 0C45.4622 0 45.6901 0.0976562 45.8789 0.292969C46.0742 0.481771 46.1719 0.709635 46.1719 0.976562C46.1719 1.24349 46.0742 1.47461 45.8789 1.66992C45.6901 1.85872 45.4622 1.95312 45.1953 1.95312ZM47.5391 13.6719C47.2656 13.6719 47.0345 13.5775 46.8457 13.3887C46.6569 13.1934 46.5625 12.9622 46.5625 12.6953C46.5625 12.4284 46.6569 12.2005 46.8457 12.0117C47.0345 11.8164 47.2656 11.7188 47.5391 11.7188C47.806 11.7188 48.0339 11.8164 48.2227 12.0117C48.418 12.2005 48.5156 12.4284 48.5156 12.6953C48.5156 12.9622 48.418 13.1934 48.2227 13.3887C48.0339 13.5775 47.806 13.6719 47.5391 13.6719ZM47.5391 11.3281C47.2656 11.3281 47.0345 11.2337 46.8457 11.0449C46.6569 10.8496 46.5625 10.6185 46.5625 10.3516C46.5625 10.0846 46.6569 9.85677 46.8457 9.66797C47.0345 9.47266 47.2656 9.375 47.5391 9.375C47.806 9.375 48.0339 9.47266 48.2227 9.66797C48.418 9.85677 48.5156 10.0846 48.5156 10.3516C48.5156 10.6185 48.418 10.8496 48.2227 11.0449C48.0339 11.2337 47.806 11.3281 47.5391 11.3281ZM47.5391 6.64062C47.2656 6.64062 47.0345 6.54622 46.8457 6.35742C46.6569 6.16211 46.5625 5.93099 46.5625 5.66406C46.5625 5.39714 46.6569 5.16927 46.8457 4.98047C47.0345 4.78516 47.2656 4.6875 47.5391 4.6875C47.806 4.6875 48.0339 4.78516 48.2227 4.98047C48.418 5.16927 48.5156 5.39714 48.5156 5.66406C48.5156 5.93099 48.418 6.16211 48.2227 6.35742C48.0339 6.54622 47.806 6.64062 47.5391 6.64062ZM47.5391 4.29688C47.2656 4.29688 47.0345 4.20247 46.8457 4.01367C46.6569 3.81836 46.5625 3.58724 46.5625 3.32031C46.5625 3.05339 46.6569 2.82552 46.8457 2.63672C47.0345 2.44141 47.2656 2.34375 47.5391 2.34375C47.806 2.34375 48.0339 2.44141 48.2227 2.63672C48.418 2.82552 48.5156 3.05339 48.5156 3.32031C48.5156 3.58724 48.418 3.81836 48.2227 4.01367C48.0339 4.20247 47.806 4.29688 47.5391 4.29688Z" fill="white"/>
<path d="M29.2451 16.0156C28.9717 16.0156 28.7406 15.9212 28.5518 15.7324C28.363 15.5371 28.2686 15.306 28.2686 15.0391C28.2686 14.7721 28.363 14.5443 28.5518 14.3555C28.7406 14.1602 28.9717 14.0625 29.2451 14.0625C29.512 14.0625 29.7399 14.1602 29.9287 14.3555C30.124 14.5443 30.2217 14.7721 30.2217 15.0391C30.2217 15.306 30.124 15.5371 29.9287 15.7324C29.7399 15.9212 29.512 16.0156 29.2451 16.0156ZM29.2451 4.29688C28.9717 4.29688 28.7406 4.20247 28.5518 4.01367C28.363 3.81836 28.2686 3.58724 28.2686 3.32031C28.2686 3.05339 28.363 2.82552 28.5518 2.63672C28.7406 2.44141 28.9717 2.34375 29.2451 2.34375C29.512 2.34375 29.7399 2.44141 29.9287 2.63672C30.124 2.82552 30.2217 3.05339 30.2217 3.32031C30.2217 3.58724 30.124 3.81836 29.9287 4.01367C29.7399 4.20247 29.512 4.29688 29.2451 4.29688ZM31.5889 16.0156C31.3154 16.0156 31.0843 15.9212 30.8955 15.7324C30.7067 15.5371 30.6123 15.306 30.6123 15.0391C30.6123 14.7721 30.7067 14.5443 30.8955 14.3555C31.0843 14.1602 31.3154 14.0625 31.5889 14.0625C31.8558 14.0625 32.0837 14.1602 32.2725 14.3555C32.4678 14.5443 32.5654 14.7721 32.5654 15.0391C32.5654 15.306 32.4678 15.5371 32.2725 15.7324C32.0837 15.9212 31.8558 16.0156 31.5889 16.0156ZM31.5889 13.6719C31.3154 13.6719 31.0843 13.5775 30.8955 13.3887C30.7067 13.1934 30.6123 12.9622 30.6123 12.6953C30.6123 12.4284 30.7067 12.2005 30.8955 12.0117C31.0843 11.8164 31.3154 11.7188 31.5889 11.7188C31.8558 11.7188 32.0837 11.8164 32.2725 12.0117C32.4678 12.2005 32.5654 12.4284 32.5654 12.6953C32.5654 12.9622 32.4678 13.1934 32.2725 13.3887C32.0837 13.5775 31.8558 13.6719 31.5889 13.6719ZM31.5889 11.3281C31.3154 11.3281 31.0843 11.2337 30.8955 11.0449C30.7067 10.8496 30.6123 10.6185 30.6123 10.3516C30.6123 10.0846 30.7067 9.85677 30.8955 9.66797C31.0843 9.47266 31.3154 9.375 31.5889 9.375C31.8558 9.375 32.0837 9.47266 32.2725 9.66797C32.4678 9.85677 32.5654 10.0846 32.5654 10.3516C32.5654 10.6185 32.4678 10.8496 32.2725 11.0449C32.0837 11.2337 31.8558 11.3281 31.5889 11.3281ZM31.5889 8.98438C31.3154 8.98438 31.0843 8.88997 30.8955 8.70117C30.7067 8.50586 30.6123 8.27474 30.6123 8.00781C30.6123 7.74089 30.7067 7.51302 30.8955 7.32422C31.0843 7.12891 31.3154 7.03125 31.5889 7.03125C31.8558 7.03125 32.0837 7.12891 32.2725 7.32422C32.4678 7.51302 32.5654 7.74089 32.5654 8.00781C32.5654 8.27474 32.4678 8.50586 32.2725 8.70117C32.0837 8.88997 31.8558 8.98438 31.5889 8.98438ZM31.5889 6.64062C31.3154 6.64062 31.0843 6.54622 30.8955 6.35742C30.7067 6.16211 30.6123 5.93099 30.6123 5.66406C30.6123 5.39714 30.7067 5.16927 30.8955 4.98047C31.0843 4.78516 31.3154 4.6875 31.5889 4.6875C31.8558 4.6875 32.0837 4.78516 32.2725 4.98047C32.4678 5.16927 32.5654 5.39714 32.5654 5.66406C32.5654 5.93099 32.4678 6.16211 32.2725 6.35742C32.0837 6.54622 31.8558 6.64062 31.5889 6.64062ZM31.5889 4.29688C31.3154 4.29688 31.0843 4.20247 30.8955 4.01367C30.7067 3.81836 30.6123 3.58724 30.6123 3.32031C30.6123 3.05339 30.7067 2.82552 30.8955 2.63672C31.0843 2.44141 31.3154 2.34375 31.5889 2.34375C31.8558 2.34375 32.0837 2.44141 32.2725 2.63672C32.4678 2.82552 32.5654 3.05339 32.5654 3.32031C32.5654 3.58724 32.4678 3.81836 32.2725 4.01367C32.0837 4.20247 31.8558 4.29688 31.5889 4.29688ZM31.5889 1.95312C31.3154 1.95312 31.0843 1.85872 30.8955 1.66992C30.7067 1.47461 30.6123 1.24349 30.6123 0.976562C30.6123 0.709635 30.7067 0.481771 30.8955 0.292969C31.0843 0.0976562 31.3154 0 31.5889 0C31.8558 0 32.0837 0.0976562 32.2725 0.292969C32.4678 0.481771 32.5654 0.709635 32.5654 0.976562C32.5654 1.24349 32.4678 1.47461 32.2725 1.66992C32.0837 1.85872 31.8558 1.95312 31.5889 1.95312ZM33.9326 16.0156C33.6592 16.0156 33.4281 15.9212 33.2393 15.7324C33.0505 15.5371 32.9561 15.306 32.9561 15.0391C32.9561 14.7721 33.0505 14.5443 33.2393 14.3555C33.4281 14.1602 33.6592 14.0625 33.9326 14.0625C34.1995 14.0625 34.4274 14.1602 34.6162 14.3555C34.8115 14.5443 34.9092 14.7721 34.9092 15.0391C34.9092 15.306 34.8115 15.5371 34.6162 15.7324C34.4274 15.9212 34.1995 16.0156 33.9326 16.0156Z" fill="white"/>
<path d="M14.8389 13.6719C14.5654 13.6719 14.3343 13.5775 14.1455 13.3887C13.9567 13.1934 13.8623 12.9622 13.8623 12.6953C13.8623 12.4284 13.9567 12.2005 14.1455 12.0117C14.3343 11.8164 14.5654 11.7188 14.8389 11.7188C15.1058 11.7188 15.3337 11.8164 15.5225 12.0117C15.7178 12.2005 15.8154 12.4284 15.8154 12.6953C15.8154 12.9622 15.7178 13.1934 15.5225 13.3887C15.3337 13.5775 15.1058 13.6719 14.8389 13.6719ZM14.8389 11.3281C14.5654 11.3281 14.3343 11.2337 14.1455 11.0449C13.9567 10.8496 13.8623 10.6185 13.8623 10.3516C13.8623 10.0846 13.9567 9.85677 14.1455 9.66797C14.3343 9.47266 14.5654 9.375 14.8389 9.375C15.1058 9.375 15.3337 9.47266 15.5225 9.66797C15.7178 9.85677 15.8154 10.0846 15.8154 10.3516C15.8154 10.6185 15.7178 10.8496 15.5225 11.0449C15.3337 11.2337 15.1058 11.3281 14.8389 11.3281ZM14.8389 8.98438C14.5654 8.98438 14.3343 8.88997 14.1455 8.70117C13.9567 8.50586 13.8623 8.27474 13.8623 8.00781C13.8623 7.74089 13.9567 7.51302 14.1455 7.32422C14.3343 7.12891 14.5654 7.03125 14.8389 7.03125C15.1058 7.03125 15.3337 7.12891 15.5225 7.32422C15.7178 7.51302 15.8154 7.74089 15.8154 8.00781C15.8154 8.27474 15.7178 8.50586 15.5225 8.70117C15.3337 8.88997 15.1058 8.98438 14.8389 8.98438ZM14.8389 6.64062C14.5654 6.64062 14.3343 6.54622 14.1455 6.35742C13.9567 6.16211 13.8623 5.93099 13.8623 5.66406C13.8623 5.39714 13.9567 5.16927 14.1455 4.98047C14.3343 4.78516 14.5654 4.6875 14.8389 4.6875C15.1058 4.6875 15.3337 4.78516 15.5225 4.98047C15.7178 5.16927 15.8154 5.39714 15.8154 5.66406C15.8154 5.93099 15.7178 6.16211 15.5225 6.35742C15.3337 6.54622 15.1058 6.64062 14.8389 6.64062ZM14.8389 4.29688C14.5654 4.29688 14.3343 4.20247 14.1455 4.01367C13.9567 3.81836 13.8623 3.58724 13.8623 3.32031C13.8623 3.05339 13.9567 2.82552 14.1455 2.63672C14.3343 2.44141 14.5654 2.34375 14.8389 2.34375C15.1058 2.34375 15.3337 2.44141 15.5225 2.63672C15.7178 2.82552 15.8154 3.05339 15.8154 3.32031C15.8154 3.58724 15.7178 3.81836 15.5225 4.01367C15.3337 4.20247 15.1058 4.29688 14.8389 4.29688ZM17.1826 16.0156C16.9092 16.0156 16.6781 15.9212 16.4893 15.7324C16.3005 15.5371 16.2061 15.306 16.2061 15.0391C16.2061 14.7721 16.3005 14.5443 16.4893 14.3555C16.6781 14.1602 16.9092 14.0625 17.1826 14.0625C17.4495 14.0625 17.6774 14.1602 17.8662 14.3555C18.0615 14.5443 18.1592 14.7721 18.1592 15.0391C18.1592 15.306 18.0615 15.5371 17.8662 15.7324C17.6774 15.9212 17.4495 16.0156 17.1826 16.0156ZM17.1826 1.95312C16.9092 1.95312 16.6781 1.85872 16.4893 1.66992C16.3005 1.47461 16.2061 1.24349 16.2061 0.976562C16.2061 0.709635 16.3005 0.481771 16.4893 0.292969C16.6781 0.0976562 16.9092 0 17.1826 0C17.4495 0 17.6774 0.0976562 17.8662 0.292969C18.0615 0.481771 18.1592 0.709635 18.1592 0.976562C18.1592 1.24349 18.0615 1.47461 17.8662 1.66992C17.6774 1.85872 17.4495 1.95312 17.1826 1.95312ZM19.5264 16.0156C19.2529 16.0156 19.0218 15.9212 18.833 15.7324C18.6442 15.5371 18.5498 15.306 18.5498 15.0391C18.5498 14.7721 18.6442 14.5443 18.833 14.3555C19.0218 14.1602 19.2529 14.0625 19.5264 14.0625C19.7933 14.0625 20.0212 14.1602 20.21 14.3555C20.4053 14.5443 20.5029 14.7721 20.5029 15.0391C20.5029 15.306 20.4053 15.5371 20.21 15.7324C20.0212 15.9212 19.7933 16.0156 19.5264 16.0156ZM19.5264 1.95312C19.2529 1.95312 19.0218 1.85872 18.833 1.66992C18.6442 1.47461 18.5498 1.24349 18.5498 0.976562C18.5498 0.709635 18.6442 0.481771 18.833 0.292969C19.0218 0.0976562 19.2529 0 19.5264 0C19.7933 0 20.0212 0.0976562 20.21 0.292969C20.4053 0.481771 20.5029 0.709635 20.5029 0.976562C20.5029 1.24349 20.4053 1.47461 20.21 1.66992C20.0212 1.85872 19.7933 1.95312 19.5264 1.95312ZM21.8701 16.0156C21.5967 16.0156 21.3656 15.9212 21.1768 15.7324C20.988 15.5371 20.8936 15.306 20.8936 15.0391C20.8936 14.7721 20.988 14.5443 21.1768 14.3555C21.3656 14.1602 21.5967 14.0625 21.8701 14.0625C22.137 14.0625 22.3649 14.1602 22.5537 14.3555C22.749 14.5443 22.8467 14.7721 22.8467 15.0391C22.8467 15.306 22.749 15.5371 22.5537 15.7324C22.3649 15.9212 22.137 16.0156 21.8701 16.0156ZM21.8701 1.95312C21.5967 1.95312 21.3656 1.85872 21.1768 1.66992C20.988 1.47461 20.8936 1.24349 20.8936 0.976562C20.8936 0.709635 20.988 0.481771 21.1768 0.292969C21.3656 0.0976562 21.5967 0 21.8701 0C22.137 0 22.3649 0.0976562 22.5537 0.292969C22.749 0.481771 22.8467 0.709635 22.8467 0.976562C22.8467 1.24349 22.749 1.47461 22.5537 1.66992C22.3649 1.85872 22.137 1.95312 21.8701 1.95312ZM24.2139 13.6719C23.9404 13.6719 23.7093 13.5775 23.5205 13.3887C23.3317 13.1934 23.2373 12.9622 23.2373 12.6953C23.2373 12.4284 23.3317 12.2005 23.5205 12.0117C23.7093 11.8164 23.9404 11.7188 24.2139 11.7188C24.4808 11.7188 24.7087 11.8164 24.8975 12.0117C25.0928 12.2005 25.1904 12.4284 25.1904 12.6953C25.1904 12.9622 25.0928 13.1934 24.8975 13.3887C24.7087 13.5775 24.4808 13.6719 24.2139 13.6719ZM24.2139 11.3281C23.9404 11.3281 23.7093 11.2337 23.5205 11.0449C23.3317 10.8496 23.2373 10.6185 23.2373 10.3516C23.2373 10.0846 23.3317 9.85677 23.5205 9.66797C23.7093 9.47266 23.9404 9.375 24.2139 9.375C24.4808 9.375 24.7087 9.47266 24.8975 9.66797C25.0928 9.85677 25.1904 10.0846 25.1904 10.3516C25.1904 10.6185 25.0928 10.8496 24.8975 11.0449C24.7087 11.2337 24.4808 11.3281 24.2139 11.3281ZM24.2139 8.98438C23.9404 8.98438 23.7093 8.88997 23.5205 8.70117C23.3317 8.50586 23.2373 8.27474 23.2373 8.00781C23.2373 7.74089 23.3317 7.51302 23.5205 7.32422C23.7093 7.12891 23.9404 7.03125 24.2139 7.03125C24.4808 7.03125 24.7087 7.12891 24.8975 7.32422C25.0928 7.51302 25.1904 7.74089 25.1904 8.00781C25.1904 8.27474 25.0928 8.50586 24.8975 8.70117C24.7087 8.88997 24.4808 8.98438 24.2139 8.98438ZM24.2139 6.64062C23.9404 6.64062 23.7093 6.54622 23.5205 6.35742C23.3317 6.16211 23.2373 5.93099 23.2373 5.66406C23.2373 5.39714 23.3317 5.16927 23.5205 4.98047C23.7093 4.78516 23.9404 4.6875 24.2139 4.6875C24.4808 4.6875 24.7087 4.78516 24.8975 4.98047C25.0928 5.16927 25.1904 5.39714 25.1904 5.66406C25.1904 5.93099 25.0928 6.16211 24.8975 6.35742C24.7087 6.54622 24.4808 6.64062 24.2139 6.64062ZM24.2139 4.29688C23.9404 4.29688 23.7093 4.20247 23.5205 4.01367C23.3317 3.81836 23.2373 3.58724 23.2373 3.32031C23.2373 3.05339 23.3317 2.82552 23.5205 2.63672C23.7093 2.44141 23.9404 2.34375 24.2139 2.34375C24.4808 2.34375 24.7087 2.44141 24.8975 2.63672C25.0928 2.82552 25.1904 3.05339 25.1904 3.32031C25.1904 3.58724 25.0928 3.81836 24.8975 4.01367C24.7087 4.20247 24.4808 4.29688 24.2139 4.29688ZM17.1826 11.3281C16.9092 11.3281 16.6781 11.2337 16.4893 11.0449C16.3005 10.8496 16.2061 10.6185 16.2061 10.3516C16.2061 10.0846 16.3005 9.85677 16.4893 9.66797C16.6781 9.47266 16.9092 9.375 17.1826 9.375C17.4495 9.375 17.6774 9.47266 17.8662 9.66797C18.0615 9.85677 18.1592 10.0846 18.1592 10.3516C18.1592 10.6185 18.0615 10.8496 17.8662 11.0449C17.6774 11.2337 17.4495 11.3281 17.1826 11.3281ZM19.5264 8.98438C19.2529 8.98438 19.0218 8.88997 18.833 8.70117C18.6442 8.50586 18.5498 8.27474 18.5498 8.00781C18.5498 7.74089 18.6442 7.51302 18.833 7.32422C19.0218 7.12891 19.2529 7.03125 19.5264 7.03125C19.7933 7.03125 20.0212 7.12891 20.21 7.32422C20.4053 7.51302 20.5029 7.74089 20.5029 8.00781C20.5029 8.27474 20.4053 8.50586 20.21 8.70117C20.0212 8.88997 19.7933 8.98438 19.5264 8.98438ZM21.8701 6.64062C21.5967 6.64062 21.3656 6.54622 21.1768 6.35742C20.988 6.16211 20.8936 5.93099 20.8936 5.66406C20.8936 5.39714 20.988 5.16927 21.1768 4.98047C21.3656 4.78516 21.5967 4.6875 21.8701 4.6875C22.137 4.6875 22.3649 4.78516 22.5537 4.98047C22.749 5.16927 22.8467 5.39714 22.8467 5.66406C22.8467 5.93099 22.749 6.16211 22.5537 6.35742C22.3649 6.54622 22.137 6.64062 21.8701 6.64062Z" fill="white"/>
<path d="M0.976562 16.0156C0.703125 16.0156 0.472005 15.9212 0.283203 15.7324C0.094401 15.5371 0 15.306 0 15.0391C0 14.7721 0.094401 14.5443 0.283203 14.3555C0.472005 14.1602 0.703125 14.0625 0.976562 14.0625C1.24349 14.0625 1.47135 14.1602 1.66016 14.3555C1.85547 14.5443 1.95312 14.7721 1.95312 15.0391C1.95312 15.306 1.85547 15.5371 1.66016 15.7324C1.47135 15.9212 1.24349 16.0156 0.976562 16.0156ZM0.976562 4.29688C0.703125 4.29688 0.472005 4.20247 0.283203 4.01367C0.094401 3.81836 0 3.58724 0 3.32031C0 3.05339 0.094401 2.82552 0.283203 2.63672C0.472005 2.44141 0.703125 2.34375 0.976562 2.34375C1.24349 2.34375 1.47135 2.44141 1.66016 2.63672C1.85547 2.82552 1.95312 3.05339 1.95312 3.32031C1.95312 3.58724 1.85547 3.81836 1.66016 4.01367C1.47135 4.20247 1.24349 4.29688 0.976562 4.29688ZM3.32031 16.0156C3.04688 16.0156 2.81576 15.9212 2.62695 15.7324C2.43815 15.5371 2.34375 15.306 2.34375 15.0391C2.34375 14.7721 2.43815 14.5443 2.62695 14.3555C2.81576 14.1602 3.04688 14.0625 3.32031 14.0625C3.58724 14.0625 3.8151 14.1602 4.00391 14.3555C4.19922 14.5443 4.29688 14.7721 4.29688 15.0391C4.29688 15.306 4.19922 15.5371 4.00391 15.7324C3.8151 15.9212 3.58724 16.0156 3.32031 16.0156ZM3.32031 13.6719C3.04688 13.6719 2.81576 13.5775 2.62695 13.3887C2.43815 13.1934 2.34375 12.9622 2.34375 12.6953C2.34375 12.4284 2.43815 12.2005 2.62695 12.0117C2.81576 11.8164 3.04688 11.7188 3.32031 11.7188C3.58724 11.7188 3.8151 11.8164 4.00391 12.0117C4.19922 12.2005 4.29688 12.4284 4.29688 12.6953C4.29688 12.9622 4.19922 13.1934 4.00391 13.3887C3.8151 13.5775 3.58724 13.6719 3.32031 13.6719ZM3.32031 1.95312C3.04688 1.95312 2.81576 1.85872 2.62695 1.66992C2.43815 1.47461 2.34375 1.24349 2.34375 0.976562C2.34375 0.709635 2.43815 0.481771 2.62695 0.292969C2.81576 0.0976562 3.04688 0 3.32031 0C3.58724 0 3.8151 0.0976562 4.00391 0.292969C4.19922 0.481771 4.29688 0.709635 4.29688 0.976562C4.29688 1.24349 4.19922 1.47461 4.00391 1.66992C3.8151 1.85872 3.58724 1.95312 3.32031 1.95312ZM5.66406 16.0156C5.39062 16.0156 5.15951 15.9212 4.9707 15.7324C4.7819 15.5371 4.6875 15.306 4.6875 15.0391C4.6875 14.7721 4.7819 14.5443 4.9707 14.3555C5.15951 14.1602 5.39062 14.0625 5.66406 14.0625C5.93099 14.0625 6.15885 14.1602 6.34766 14.3555C6.54297 14.5443 6.64062 14.7721 6.64062 15.0391C6.64062 15.306 6.54297 15.5371 6.34766 15.7324C6.15885 15.9212 5.93099 16.0156 5.66406 16.0156ZM5.66406 11.3281C5.39062 11.3281 5.15951 11.2337 4.9707 11.0449C4.7819 10.8496 4.6875 10.6185 4.6875 10.3516C4.6875 10.0846 4.7819 9.85677 4.9707 9.66797C5.15951 9.47266 5.39062 9.375 5.66406 9.375C5.93099 9.375 6.15885 9.47266 6.34766 9.66797C6.54297 9.85677 6.64062 10.0846 6.64062 10.3516C6.64062 10.6185 6.54297 10.8496 6.34766 11.0449C6.15885 11.2337 5.93099 11.3281 5.66406 11.3281ZM5.66406 1.95312C5.39062 1.95312 5.15951 1.85872 4.9707 1.66992C4.7819 1.47461 4.6875 1.24349 4.6875 0.976562C4.6875 0.709635 4.7819 0.481771 4.9707 0.292969C5.15951 0.0976562 5.39062 0 5.66406 0C5.93099 0 6.15885 0.0976562 6.34766 0.292969C6.54297 0.481771 6.64062 0.709635 6.64062 0.976562C6.64062 1.24349 6.54297 1.47461 6.34766 1.66992C6.15885 1.85872 5.93099 1.95312 5.66406 1.95312ZM8.00781 16.0156C7.73438 16.0156 7.50326 15.9212 7.31445 15.7324C7.12565 15.5371 7.03125 15.306 7.03125 15.0391C7.03125 14.7721 7.12565 14.5443 7.31445 14.3555C7.50326 14.1602 7.73438 14.0625 8.00781 14.0625C8.27474 14.0625 8.5026 14.1602 8.69141 14.3555C8.88672 14.5443 8.98438 14.7721 8.98438 15.0391C8.98438 15.306 8.88672 15.5371 8.69141 15.7324C8.5026 15.9212 8.27474 16.0156 8.00781 16.0156ZM8.00781 8.98438C7.73438 8.98438 7.50326 8.88997 7.31445 8.70117C7.12565 8.50586 7.03125 8.27474 7.03125 8.00781C7.03125 7.74089 7.12565 7.51302 7.31445 7.32422C7.50326 7.12891 7.73438 7.03125 8.00781 7.03125C8.27474 7.03125 8.5026 7.12891 8.69141 7.32422C8.88672 7.51302 8.98438 7.74089 8.98438 8.00781C8.98438 8.27474 8.88672 8.50586 8.69141 8.70117C8.5026 8.88997 8.27474 8.98438 8.00781 8.98438ZM8.00781 1.95312C7.73438 1.95312 7.50326 1.85872 7.31445 1.66992C7.12565 1.47461 7.03125 1.24349 7.03125 0.976562C7.03125 0.709635 7.12565 0.481771 7.31445 0.292969C7.50326 0.0976562 7.73438 0 8.00781 0C8.27474 0 8.5026 0.0976562 8.69141 0.292969C8.88672 0.481771 8.98438 0.709635 8.98438 0.976562C8.98438 1.24349 8.88672 1.47461 8.69141 1.66992C8.5026 1.85872 8.27474 1.95312 8.00781 1.95312ZM10.3516 16.0156C10.0781 16.0156 9.84701 15.9212 9.6582 15.7324C9.4694 15.5371 9.375 15.306 9.375 15.0391C9.375 14.7721 9.4694 14.5443 9.6582 14.3555C9.84701 14.1602 10.0781 14.0625 10.3516 14.0625C10.6185 14.0625 10.8464 14.1602 11.0352 14.3555C11.2305 14.5443 11.3281 14.7721 11.3281 15.0391C11.3281 15.306 11.2305 15.5371 11.0352 15.7324C10.8464 15.9212 10.6185 16.0156 10.3516 16.0156ZM10.3516 6.64062C10.0781 6.64062 9.84701 6.54622 9.6582 6.35742C9.4694 6.16211 9.375 5.93099 9.375 5.66406C9.375 5.39714 9.4694 5.16927 9.6582 4.98047C9.84701 4.78516 10.0781 4.6875 10.3516 4.6875C10.6185 4.6875 10.8464 4.78516 11.0352 4.98047C11.2305 5.16927 11.3281 5.39714 11.3281 5.66406C11.3281 5.93099 11.2305 6.16211 11.0352 6.35742C10.8464 6.54622 10.6185 6.64062 10.3516 6.64062ZM10.3516 4.29688C10.0781 4.29688 9.84701 4.20247 9.6582 4.01367C9.4694 3.81836 9.375 3.58724 9.375 3.32031C9.375 3.05339 9.4694 2.82552 9.6582 2.63672C9.84701 2.44141 10.0781 2.34375 10.3516 2.34375C10.6185 2.34375 10.8464 2.44141 11.0352 2.63672C11.2305 2.82552 11.3281 3.05339 11.3281 3.32031C11.3281 3.58724 11.2305 3.81836 11.0352 4.01367C10.8464 4.20247 10.6185 4.29688 10.3516 4.29688Z" fill="white"/>
</svg>
