<svg width="51" height="17" viewBox="0 0 51 17" fill="none" xmlns="http://www.w3.org/2000/svg">
<path d="M44.9082 16.0156C44.6348 16.0156 44.4036 15.9212 44.2148 15.7324C44.026 15.5371 43.9316 15.306 43.9316 15.0391C43.9316 14.7721 44.026 14.5443 44.2148 14.3555C44.4036 14.1602 44.6348 14.0625 44.9082 14.0625C45.1751 14.0625 45.403 14.1602 45.5918 14.3555C45.7871 14.5443 45.8848 14.7721 45.8848 15.0391C45.8848 15.306 45.7871 15.5371 45.5918 15.7324C45.403 15.9212 45.1751 16.0156 44.9082 16.0156ZM44.9082 4.29688C44.6348 4.29688 44.4036 4.20247 44.2148 4.01367C44.026 3.81836 43.9316 3.58724 43.9316 3.32031C43.9316 3.05339 44.026 2.82552 44.2148 2.63672C44.4036 2.44141 44.6348 2.34375 44.9082 2.34375C45.1751 2.34375 45.403 2.44141 45.5918 2.63672C45.7871 2.82552 45.8848 3.05339 45.8848 3.32031C45.8848 3.58724 45.7871 3.81836 45.5918 4.01367C45.403 4.20247 45.1751 4.29688 44.9082 4.29688ZM47.252 16.0156C46.9785 16.0156 46.7474 15.9212 46.5586 15.7324C46.3698 15.5371 46.2754 15.306 46.2754 15.0391C46.2754 14.7721 46.3698 14.5443 46.5586 14.3555C46.7474 14.1602 46.9785 14.0625 47.252 14.0625C47.5189 14.0625 47.7467 14.1602 47.9355 14.3555C48.1309 14.5443 48.2285 14.7721 48.2285 15.0391C48.2285 15.306 48.1309 15.5371 47.9355 15.7324C47.7467 15.9212 47.5189 16.0156 47.252 16.0156ZM47.252 13.6719C46.9785 13.6719 46.7474 13.5775 46.5586 13.3887C46.3698 13.1934 46.2754 12.9622 46.2754 12.6953C46.2754 12.4284 46.3698 12.2005 46.5586 12.0117C46.7474 11.8164 46.9785 11.7188 47.252 11.7188C47.5189 11.7188 47.7467 11.8164 47.9355 12.0117C48.1309 12.2005 48.2285 12.4284 48.2285 12.6953C48.2285 12.9622 48.1309 13.1934 47.9355 13.3887C47.7467 13.5775 47.5189 13.6719 47.252 13.6719ZM47.252 11.3281C46.9785 11.3281 46.7474 11.2337 46.5586 11.0449C46.3698 10.8496 46.2754 10.6185 46.2754 10.3516C46.2754 10.0846 46.3698 9.85677 46.5586 9.66797C46.7474 9.47266 46.9785 9.375 47.252 9.375C47.5189 9.375 47.7467 9.47266 47.9355 9.66797C48.1309 9.85677 48.2285 10.0846 48.2285 10.3516C48.2285 10.6185 48.1309 10.8496 47.9355 11.0449C47.7467 11.2337 47.5189 11.3281 47.252 11.3281ZM47.252 8.98438C46.9785 8.98438 46.7474 8.88997 46.5586 8.70117C46.3698 8.50586 46.2754 8.27474 46.2754 8.00781C46.2754 7.74089 46.3698 7.51302 46.5586 7.32422C46.7474 7.12891 46.9785 7.03125 47.252 7.03125C47.5189 7.03125 47.7467 7.12891 47.9355 7.32422C48.1309 7.51302 48.2285 7.74089 48.2285 8.00781C48.2285 8.27474 48.1309 8.50586 47.9355 8.70117C47.7467 8.88997 47.5189 8.98438 47.252 8.98438ZM47.252 6.64062C46.9785 6.64062 46.7474 6.54622 46.5586 6.35742C46.3698 6.16211 46.2754 5.93099 46.2754 5.66406C46.2754 5.39714 46.3698 5.16927 46.5586 4.98047C46.7474 4.78516 46.9785 4.6875 47.252 4.6875C47.5189 4.6875 47.7467 4.78516 47.9355 4.98047C48.1309 5.16927 48.2285 5.39714 48.2285 5.66406C48.2285 5.93099 48.1309 6.16211 47.9355 6.35742C47.7467 6.54622 47.5189 6.64062 47.252 6.64062ZM47.252 4.29688C46.9785 4.29688 46.7474 4.20247 46.5586 4.01367C46.3698 3.81836 46.2754 3.58724 46.2754 3.32031C46.2754 3.05339 46.3698 2.82552 46.5586 2.63672C46.7474 2.44141 46.9785 2.34375 47.252 2.34375C47.5189 2.34375 47.7467 2.44141 47.9355 2.63672C48.1309 2.82552 48.2285 3.05339 48.2285 3.32031C48.2285 3.58724 48.1309 3.81836 47.9355 4.01367C47.7467 4.20247 47.5189 4.29688 47.252 4.29688ZM47.252 1.95312C46.9785 1.95312 46.7474 1.85872 46.5586 1.66992C46.3698 1.47461 46.2754 1.24349 46.2754 0.976562C46.2754 0.709635 46.3698 0.481771 46.5586 0.292969C46.7474 0.0976562 46.9785 0 47.252 0C47.5189 0 47.7467 0.0976562 47.9355 0.292969C48.1309 0.481771 48.2285 0.709635 48.2285 0.976562C48.2285 1.24349 48.1309 1.47461 47.9355 1.66992C47.7467 1.85872 47.5189 1.95312 47.252 1.95312ZM49.5957 16.0156C49.3223 16.0156 49.0911 15.9212 48.9023 15.7324C48.7135 15.5371 48.6191 15.306 48.6191 15.0391C48.6191 14.7721 48.7135 14.5443 48.9023 14.3555C49.0911 14.1602 49.3223 14.0625 49.5957 14.0625C49.8626 14.0625 50.0905 14.1602 50.2793 14.3555C50.4746 14.5443 50.5723 14.7721 50.5723 15.0391C50.5723 15.306 50.4746 15.5371 50.2793 15.7324C50.0905 15.9212 49.8626 16.0156 49.5957 16.0156Z" fill="white"/>
<path d="M28.7012 16.0156C28.4277 16.0156 28.1966 15.9212 28.0078 15.7324C27.819 15.5371 27.7246 15.306 27.7246 15.0391C27.7246 14.7721 27.819 14.5443 28.0078 14.3555C28.1966 14.1602 28.4277 14.0625 28.7012 14.0625C28.9681 14.0625 29.196 14.1602 29.3848 14.3555C29.5801 14.5443 29.6777 14.7721 29.6777 15.0391C29.6777 15.306 29.5801 15.5371 29.3848 15.7324C29.196 15.9212 28.9681 16.0156 28.7012 16.0156ZM28.7012 4.29688C28.4277 4.29688 28.1966 4.20247 28.0078 4.01367C27.819 3.81836 27.7246 3.58724 27.7246 3.32031C27.7246 3.05339 27.819 2.82552 28.0078 2.63672C28.1966 2.44141 28.4277 2.34375 28.7012 2.34375C28.9681 2.34375 29.196 2.44141 29.3848 2.63672C29.5801 2.82552 29.6777 3.05339 29.6777 3.32031C29.6777 3.58724 29.5801 3.81836 29.3848 4.01367C29.196 4.20247 28.9681 4.29688 28.7012 4.29688ZM31.0449 16.0156C30.7715 16.0156 30.5404 15.9212 30.3516 15.7324C30.1628 15.5371 30.0684 15.306 30.0684 15.0391C30.0684 14.7721 30.1628 14.5443 30.3516 14.3555C30.5404 14.1602 30.7715 14.0625 31.0449 14.0625C31.3118 14.0625 31.5397 14.1602 31.7285 14.3555C31.9238 14.5443 32.0215 14.7721 32.0215 15.0391C32.0215 15.306 31.9238 15.5371 31.7285 15.7324C31.5397 15.9212 31.3118 16.0156 31.0449 16.0156ZM31.0449 13.6719C30.7715 13.6719 30.5404 13.5775 30.3516 13.3887C30.1628 13.1934 30.0684 12.9622 30.0684 12.6953C30.0684 12.4284 30.1628 12.2005 30.3516 12.0117C30.5404 11.8164 30.7715 11.7188 31.0449 11.7188C31.3118 11.7188 31.5397 11.8164 31.7285 12.0117C31.9238 12.2005 32.0215 12.4284 32.0215 12.6953C32.0215 12.9622 31.9238 13.1934 31.7285 13.3887C31.5397 13.5775 31.3118 13.6719 31.0449 13.6719ZM31.0449 1.95312C30.7715 1.95312 30.5404 1.85872 30.3516 1.66992C30.1628 1.47461 30.0684 1.24349 30.0684 0.976562C30.0684 0.709635 30.1628 0.481771 30.3516 0.292969C30.5404 0.0976562 30.7715 0 31.0449 0C31.3118 0 31.5397 0.0976562 31.7285 0.292969C31.9238 0.481771 32.0215 0.709635 32.0215 0.976562C32.0215 1.24349 31.9238 1.47461 31.7285 1.66992C31.5397 1.85872 31.3118 1.95312 31.0449 1.95312ZM33.3887 16.0156C33.1152 16.0156 32.8841 15.9212 32.6953 15.7324C32.5065 15.5371 32.4121 15.306 32.4121 15.0391C32.4121 14.7721 32.5065 14.5443 32.6953 14.3555C32.8841 14.1602 33.1152 14.0625 33.3887 14.0625C33.6556 14.0625 33.8835 14.1602 34.0723 14.3555C34.2676 14.5443 34.3652 14.7721 34.3652 15.0391C34.3652 15.306 34.2676 15.5371 34.0723 15.7324C33.8835 15.9212 33.6556 16.0156 33.3887 16.0156ZM33.3887 11.3281C33.1152 11.3281 32.8841 11.2337 32.6953 11.0449C32.5065 10.8496 32.4121 10.6185 32.4121 10.3516C32.4121 10.0846 32.5065 9.85677 32.6953 9.66797C32.8841 9.47266 33.1152 9.375 33.3887 9.375C33.6556 9.375 33.8835 9.47266 34.0723 9.66797C34.2676 9.85677 34.3652 10.0846 34.3652 10.3516C34.3652 10.6185 34.2676 10.8496 34.0723 11.0449C33.8835 11.2337 33.6556 11.3281 33.3887 11.3281ZM33.3887 1.95312C33.1152 1.95312 32.8841 1.85872 32.6953 1.66992C32.5065 1.47461 32.4121 1.24349 32.4121 0.976562C32.4121 0.709635 32.5065 0.481771 32.6953 0.292969C32.8841 0.0976562 33.1152 0 33.3887 0C33.6556 0 33.8835 0.0976562 34.0723 0.292969C34.2676 0.481771 34.3652 0.709635 34.3652 0.976562C34.3652 1.24349 34.2676 1.47461 34.0723 1.66992C33.8835 1.85872 33.6556 1.95312 33.3887 1.95312ZM35.7324 16.0156C35.459 16.0156 35.2279 15.9212 35.0391 15.7324C34.8503 15.5371 34.7559 15.306 34.7559 15.0391C34.7559 14.7721 34.8503 14.5443 35.0391 14.3555C35.2279 14.1602 35.459 14.0625 35.7324 14.0625C35.9993 14.0625 36.2272 14.1602 36.416 14.3555C36.6113 14.5443 36.709 14.7721 36.709 15.0391C36.709 15.306 36.6113 15.5371 36.416 15.7324C36.2272 15.9212 35.9993 16.0156 35.7324 16.0156ZM35.7324 8.98438C35.459 8.98438 35.2279 8.88997 35.0391 8.70117C34.8503 8.50586 34.7559 8.27474 34.7559 8.00781C34.7559 7.74089 34.8503 7.51302 35.0391 7.32422C35.2279 7.12891 35.459 7.03125 35.7324 7.03125C35.9993 7.03125 36.2272 7.12891 36.416 7.32422C36.6113 7.51302 36.709 7.74089 36.709 8.00781C36.709 8.27474 36.6113 8.50586 36.416 8.70117C36.2272 8.88997 35.9993 8.98438 35.7324 8.98438ZM35.7324 1.95312C35.459 1.95312 35.2279 1.85872 35.0391 1.66992C34.8503 1.47461 34.7559 1.24349 34.7559 0.976562C34.7559 0.709635 34.8503 0.481771 35.0391 0.292969C35.2279 0.0976562 35.459 0 35.7324 0C35.9993 0 36.2272 0.0976562 36.416 0.292969C36.6113 0.481771 36.709 0.709635 36.709 0.976562C36.709 1.24349 36.6113 1.47461 36.416 1.66992C36.2272 1.85872 35.9993 1.95312 35.7324 1.95312ZM38.0762 16.0156C37.8027 16.0156 37.5716 15.9212 37.3828 15.7324C37.194 15.5371 37.0996 15.306 37.0996 15.0391C37.0996 14.7721 37.194 14.5443 37.3828 14.3555C37.5716 14.1602 37.8027 14.0625 38.0762 14.0625C38.3431 14.0625 38.571 14.1602 38.7598 14.3555C38.9551 14.5443 39.0527 14.7721 39.0527 15.0391C39.0527 15.306 38.9551 15.5371 38.7598 15.7324C38.571 15.9212 38.3431 16.0156 38.0762 16.0156ZM38.0762 6.64062C37.8027 6.64062 37.5716 6.54622 37.3828 6.35742C37.194 6.16211 37.0996 5.93099 37.0996 5.66406C37.0996 5.39714 37.194 5.16927 37.3828 4.98047C37.5716 4.78516 37.8027 4.6875 38.0762 4.6875C38.3431 4.6875 38.571 4.78516 38.7598 4.98047C38.9551 5.16927 39.0527 5.39714 39.0527 5.66406C39.0527 5.93099 38.9551 6.16211 38.7598 6.35742C38.571 6.54622 38.3431 6.64062 38.0762 6.64062ZM38.0762 4.29688C37.8027 4.29688 37.5716 4.20247 37.3828 4.01367C37.194 3.81836 37.0996 3.58724 37.0996 3.32031C37.0996 3.05339 37.194 2.82552 37.3828 2.63672C37.5716 2.44141 37.8027 2.34375 38.0762 2.34375C38.3431 2.34375 38.571 2.44141 38.7598 2.63672C38.9551 2.82552 39.0527 3.05339 39.0527 3.32031C39.0527 3.58724 38.9551 3.81836 38.7598 4.01367C38.571 4.20247 38.3431 4.29688 38.0762 4.29688Z" fill="white"/>
<path d="M14.8389 13.6719C14.5654 13.6719 14.3343 13.5775 14.1455 13.3887C13.9567 13.1934 13.8623 12.9622 13.8623 12.6953C13.8623 12.4284 13.9567 12.2005 14.1455 12.0117C14.3343 11.8164 14.5654 11.7188 14.8389 11.7188C15.1058 11.7188 15.3337 11.8164 15.5225 12.0117C15.7178 12.2005 15.8154 12.4284 15.8154 12.6953C15.8154 12.9622 15.7178 13.1934 15.5225 13.3887C15.3337 13.5775 15.1058 13.6719 14.8389 13.6719ZM14.8389 11.3281C14.5654 11.3281 14.3343 11.2337 14.1455 11.0449C13.9567 10.8496 13.8623 10.6185 13.8623 10.3516C13.8623 10.0846 13.9567 9.85677 14.1455 9.66797C14.3343 9.47266 14.5654 9.375 14.8389 9.375C15.1058 9.375 15.3337 9.47266 15.5225 9.66797C15.7178 9.85677 15.8154 10.0846 15.8154 10.3516C15.8154 10.6185 15.7178 10.8496 15.5225 11.0449C15.3337 11.2337 15.1058 11.3281 14.8389 11.3281ZM14.8389 8.98438C14.5654 8.98438 14.3343 8.88997 14.1455 8.70117C13.9567 8.50586 13.8623 8.27474 13.8623 8.00781C13.8623 7.74089 13.9567 7.51302 14.1455 7.32422C14.3343 7.12891 14.5654 7.03125 14.8389 7.03125C15.1058 7.03125 15.3337 7.12891 15.5225 7.32422C15.7178 7.51302 15.8154 7.74089 15.8154 8.00781C15.8154 8.27474 15.7178 8.50586 15.5225 8.70117C15.3337 8.88997 15.1058 8.98438 14.8389 8.98438ZM14.8389 6.64062C14.5654 6.64062 14.3343 6.54622 14.1455 6.35742C13.9567 6.16211 13.8623 5.93099 13.8623 5.66406C13.8623 5.39714 13.9567 5.16927 14.1455 4.98047C14.3343 4.78516 14.5654 4.6875 14.8389 4.6875C15.1058 4.6875 15.3337 4.78516 15.5225 4.98047C15.7178 5.16927 15.8154 5.39714 15.8154 5.66406C15.8154 5.93099 15.7178 6.16211 15.5225 6.35742C15.3337 6.54622 15.1058 6.64062 14.8389 6.64062ZM14.8389 4.29688C14.5654 4.29688 14.3343 4.20247 14.1455 4.01367C13.9567 3.81836 13.8623 3.58724 13.8623 3.32031C13.8623 3.05339 13.9567 2.82552 14.1455 2.63672C14.3343 2.44141 14.5654 2.34375 14.8389 2.34375C15.1058 2.34375 15.3337 2.44141 15.5225 2.63672C15.7178 2.82552 15.8154 3.05339 15.8154 3.32031C15.8154 3.58724 15.7178 3.81836 15.5225 4.01367C15.3337 4.20247 15.1058 4.29688 14.8389 4.29688ZM17.1826 16.0156C16.9092 16.0156 16.6781 15.9212 16.4893 15.7324C16.3005 15.5371 16.2061 15.306 16.2061 15.0391C16.2061 14.7721 16.3005 14.5443 16.4893 14.3555C16.6781 14.1602 16.9092 14.0625 17.1826 14.0625C17.4495 14.0625 17.6774 14.1602 17.8662 14.3555C18.0615 14.5443 18.1592 14.7721 18.1592 15.0391C18.1592 15.306 18.0615 15.5371 17.8662 15.7324C17.6774 15.9212 17.4495 16.0156 17.1826 16.0156ZM17.1826 1.95312C16.9092 1.95312 16.6781 1.85872 16.4893 1.66992C16.3005 1.47461 16.2061 1.24349 16.2061 0.976562C16.2061 0.709635 16.3005 0.481771 16.4893 0.292969C16.6781 0.0976562 16.9092 0 17.1826 0C17.4495 0 17.6774 0.0976562 17.8662 0.292969C18.0615 0.481771 18.1592 0.709635 18.1592 0.976562C18.1592 1.24349 18.0615 1.47461 17.8662 1.66992C17.6774 1.85872 17.4495 1.95312 17.1826 1.95312ZM19.5264 16.0156C19.2529 16.0156 19.0218 15.9212 18.833 15.7324C18.6442 15.5371 18.5498 15.306 18.5498 15.0391C18.5498 14.7721 18.6442 14.5443 18.833 14.3555C19.0218 14.1602 19.2529 14.0625 19.5264 14.0625C19.7933 14.0625 20.0212 14.1602 20.21 14.3555C20.4053 14.5443 20.5029 14.7721 20.5029 15.0391C20.5029 15.306 20.4053 15.5371 20.21 15.7324C20.0212 15.9212 19.7933 16.0156 19.5264 16.0156ZM19.5264 1.95312C19.2529 1.95312 19.0218 1.85872 18.833 1.66992C18.6442 1.47461 18.5498 1.24349 18.5498 0.976562C18.5498 0.709635 18.6442 0.481771 18.833 0.292969C19.0218 0.0976562 19.2529 0 19.5264 0C19.7933 0 20.0212 0.0976562 20.21 0.292969C20.4053 0.481771 20.5029 0.709635 20.5029 0.976562C20.5029 1.24349 20.4053 1.47461 20.21 1.66992C20.0212 1.85872 19.7933 1.95312 19.5264 1.95312ZM21.8701 16.0156C21.5967 16.0156 21.3656 15.9212 21.1768 15.7324C20.988 15.5371 20.8936 15.306 20.8936 15.0391C20.8936 14.7721 20.988 14.5443 21.1768 14.3555C21.3656 14.1602 21.5967 14.0625 21.8701 14.0625C22.137 14.0625 22.3649 14.1602 22.5537 14.3555C22.749 14.5443 22.8467 14.7721 22.8467 15.0391C22.8467 15.306 22.749 15.5371 22.5537 15.7324C22.3649 15.9212 22.137 16.0156 21.8701 16.0156ZM21.8701 1.95312C21.5967 1.95312 21.3656 1.85872 21.1768 1.66992C20.988 1.47461 20.8936 1.24349 20.8936 0.976562C20.8936 0.709635 20.988 0.481771 21.1768 0.292969C21.3656 0.0976562 21.5967 0 21.8701 0C22.137 0 22.3649 0.0976562 22.5537 0.292969C22.749 0.481771 22.8467 0.709635 22.8467 0.976562C22.8467 1.24349 22.749 1.47461 22.5537 1.66992C22.3649 1.85872 22.137 1.95312 21.8701 1.95312ZM24.2139 13.6719C23.9404 13.6719 23.7093 13.5775 23.5205 13.3887C23.3317 13.1934 23.2373 12.9622 23.2373 12.6953C23.2373 12.4284 23.3317 12.2005 23.5205 12.0117C23.7093 11.8164 23.9404 11.7188 24.2139 11.7188C24.4808 11.7188 24.7087 11.8164 24.8975 12.0117C25.0928 12.2005 25.1904 12.4284 25.1904 12.6953C25.1904 12.9622 25.0928 13.1934 24.8975 13.3887C24.7087 13.5775 24.4808 13.6719 24.2139 13.6719ZM24.2139 11.3281C23.9404 11.3281 23.7093 11.2337 23.5205 11.0449C23.3317 10.8496 23.2373 10.6185 23.2373 10.3516C23.2373 10.0846 23.3317 9.85677 23.5205 9.66797C23.7093 9.47266 23.9404 9.375 24.2139 9.375C24.4808 9.375 24.7087 9.47266 24.8975 9.66797C25.0928 9.85677 25.1904 10.0846 25.1904 10.3516C25.1904 10.6185 25.0928 10.8496 24.8975 11.0449C24.7087 11.2337 24.4808 11.3281 24.2139 11.3281ZM24.2139 8.98438C23.9404 8.98438 23.7093 8.88997 23.5205 8.70117C23.3317 8.50586 23.2373 8.27474 23.2373 8.00781C23.2373 7.74089 23.3317 7.51302 23.5205 7.32422C23.7093 7.12891 23.9404 7.03125 24.2139 7.03125C24.4808 7.03125 24.7087 7.12891 24.8975 7.32422C25.0928 7.51302 25.1904 7.74089 25.1904 8.00781C25.1904 8.27474 25.0928 8.50586 24.8975 8.70117C24.7087 8.88997 24.4808 8.98438 24.2139 8.98438ZM24.2139 6.64062C23.9404 6.64062 23.7093 6.54622 23.5205 6.35742C23.3317 6.16211 23.2373 5.93099 23.2373 5.66406C23.2373 5.39714 23.3317 5.16927 23.5205 4.98047C23.7093 4.78516 23.9404 4.6875 24.2139 4.6875C24.4808 4.6875 24.7087 4.78516 24.8975 4.98047C25.0928 5.16927 25.1904 5.39714 25.1904 5.66406C25.1904 5.93099 25.0928 6.16211 24.8975 6.35742C24.7087 6.54622 24.4808 6.64062 24.2139 6.64062ZM24.2139 4.29688C23.9404 4.29688 23.7093 4.20247 23.5205 4.01367C23.3317 3.81836 23.2373 3.58724 23.2373 3.32031C23.2373 3.05339 23.3317 2.82552 23.5205 2.63672C23.7093 2.44141 23.9404 2.34375 24.2139 2.34375C24.4808 2.34375 24.7087 2.44141 24.8975 2.63672C25.0928 2.82552 25.1904 3.05339 25.1904 3.32031C25.1904 3.58724 25.0928 3.81836 24.8975 4.01367C24.7087 4.20247 24.4808 4.29688 24.2139 4.29688ZM17.1826 11.3281C16.9092 11.3281 16.6781 11.2337 16.4893 11.0449C16.3005 10.8496 16.2061 10.6185 16.2061 10.3516C16.2061 10.0846 16.3005 9.85677 16.4893 9.66797C16.6781 9.47266 16.9092 9.375 17.1826 9.375C17.4495 9.375 17.6774 9.47266 17.8662 9.66797C18.0615 9.85677 18.1592 10.0846 18.1592 10.3516C18.1592 10.6185 18.0615 10.8496 17.8662 11.0449C17.6774 11.2337 17.4495 11.3281 17.1826 11.3281ZM19.5264 8.98438C19.2529 8.98438 19.0218 8.88997 18.833 8.70117C18.6442 8.50586 18.5498 8.27474 18.5498 8.00781C18.5498 7.74089 18.6442 7.51302 18.833 7.32422C19.0218 7.12891 19.2529 7.03125 19.5264 7.03125C19.7933 7.03125 20.0212 7.12891 20.21 7.32422C20.4053 7.51302 20.5029 7.74089 20.5029 8.00781C20.5029 8.27474 20.4053 8.50586 20.21 8.70117C20.0212 8.88997 19.7933 8.98438 19.5264 8.98438ZM21.8701 6.64062C21.5967 6.64062 21.3656 6.54622 21.1768 6.35742C20.988 6.16211 20.8936 5.93099 20.8936 5.66406C20.8936 5.39714 20.988 5.16927 21.1768 4.98047C21.3656 4.78516 21.5967 4.6875 21.8701 4.6875C22.137 4.6875 22.3649 4.78516 22.5537 4.98047C22.749 5.16927 22.8467 5.39714 22.8467 5.66406C22.8467 5.93099 22.749 6.16211 22.5537 6.35742C22.3649 6.54622 22.137 6.64062 21.8701 6.64062Z" fill="white"/>
<path d="M0.976562 16.0156C0.703125 16.0156 0.472005 15.9212 0.283203 15.7324C0.094401 15.5371 0 15.306 0 15.0391C0 14.7721 0.094401 14.5443 0.283203 14.3555C0.472005 14.1602 0.703125 14.0625 0.976562 14.0625C1.24349 14.0625 1.47135 14.1602 1.66016 14.3555C1.85547 14.5443 1.95312 14.7721 1.95312 15.0391C1.95312 15.306 1.85547 15.5371 1.66016 15.7324C1.47135 15.9212 1.24349 16.0156 0.976562 16.0156ZM0.976562 4.29688C0.703125 4.29688 0.472005 4.20247 0.283203 4.01367C0.094401 3.81836 0 3.58724 0 3.32031C0 3.05339 0.094401 2.82552 0.283203 2.63672C0.472005 2.44141 0.703125 2.34375 0.976562 2.34375C1.24349 2.34375 1.47135 2.44141 1.66016 2.63672C1.85547 2.82552 1.95312 3.05339 1.95312 3.32031C1.95312 3.58724 1.85547 3.81836 1.66016 4.01367C1.47135 4.20247 1.24349 4.29688 0.976562 4.29688ZM3.32031 16.0156C3.04688 16.0156 2.81576 15.9212 2.62695 15.7324C2.43815 15.5371 2.34375 15.306 2.34375 15.0391C2.34375 14.7721 2.43815 14.5443 2.62695 14.3555C2.81576 14.1602 3.04688 14.0625 3.32031 14.0625C3.58724 14.0625 3.8151 14.1602 4.00391 14.3555C4.19922 14.5443 4.29688 14.7721 4.29688 15.0391C4.29688 15.306 4.19922 15.5371 4.00391 15.7324C3.8151 15.9212 3.58724 16.0156 3.32031 16.0156ZM3.32031 13.6719C3.04688 13.6719 2.81576 13.5775 2.62695 13.3887C2.43815 13.1934 2.34375 12.9622 2.34375 12.6953C2.34375 12.4284 2.43815 12.2005 2.62695 12.0117C2.81576 11.8164 3.04688 11.7188 3.32031 11.7188C3.58724 11.7188 3.8151 11.8164 4.00391 12.0117C4.19922 12.2005 4.29688 12.4284 4.29688 12.6953C4.29688 12.9622 4.19922 13.1934 4.00391 13.3887C3.8151 13.5775 3.58724 13.6719 3.32031 13.6719ZM3.32031 1.95312C3.04688 1.95312 2.81576 1.85872 2.62695 1.66992C2.43815 1.47461 2.34375 1.24349 2.34375 0.976562C2.34375 0.709635 2.43815 0.481771 2.62695 0.292969C2.81576 0.0976562 3.04688 0 3.32031 0C3.58724 0 3.8151 0.0976562 4.00391 0.292969C4.19922 0.481771 4.29688 0.709635 4.29688 0.976562C4.29688 1.24349 4.19922 1.47461 4.00391 1.66992C3.8151 1.85872 3.58724 1.95312 3.32031 1.95312ZM5.66406 16.0156C5.39062 16.0156 5.15951 15.9212 4.9707 15.7324C4.7819 15.5371 4.6875 15.306 4.6875 15.0391C4.6875 14.7721 4.7819 14.5443 4.9707 14.3555C5.15951 14.1602 5.39062 14.0625 5.66406 14.0625C5.93099 14.0625 6.15885 14.1602 6.34766 14.3555C6.54297 14.5443 6.64062 14.7721 6.64062 15.0391C6.64062 15.306 6.54297 15.5371 6.34766 15.7324C6.15885 15.9212 5.93099 16.0156 5.66406 16.0156ZM5.66406 11.3281C5.39062 11.3281 5.15951 11.2337 4.9707 11.0449C4.7819 10.8496 4.6875 10.6185 4.6875 10.3516C4.6875 10.0846 4.7819 9.85677 4.9707 9.66797C5.15951 9.47266 5.39062 9.375 5.66406 9.375C5.93099 9.375 6.15885 9.47266 6.34766 9.66797C6.54297 9.85677 6.64062 10.0846 6.64062 10.3516C6.64062 10.6185 6.54297 10.8496 6.34766 11.0449C6.15885 11.2337 5.93099 11.3281 5.66406 11.3281ZM5.66406 1.95312C5.39062 1.95312 5.15951 1.85872 4.9707 1.66992C4.7819 1.47461 4.6875 1.24349 4.6875 0.976562C4.6875 0.709635 4.7819 0.481771 4.9707 0.292969C5.15951 0.0976562 5.39062 0 5.66406 0C5.93099 0 6.15885 0.0976562 6.34766 0.292969C6.54297 0.481771 6.64062 0.709635 6.64062 0.976562C6.64062 1.24349 6.54297 1.47461 6.34766 1.66992C6.15885 1.85872 5.93099 1.95312 5.66406 1.95312ZM8.00781 16.0156C7.73438 16.0156 7.50326 15.9212 7.31445 15.7324C7.12565 15.5371 7.03125 15.306 7.03125 15.0391C7.03125 14.7721 7.12565 14.5443 7.31445 14.3555C7.50326 14.1602 7.73438 14.0625 8.00781 14.0625C8.27474 14.0625 8.5026 14.1602 8.69141 14.3555C8.88672 14.5443 8.98438 14.7721 8.98438 15.0391C8.98438 15.306 8.88672 15.5371 8.69141 15.7324C8.5026 15.9212 8.27474 16.0156 8.00781 16.0156ZM8.00781 8.98438C7.73438 8.98438 7.50326 8.88997 7.31445 8.70117C7.12565 8.50586 7.03125 8.27474 7.03125 8.00781C7.03125 7.74089 7.12565 7.51302 7.31445 7.32422C7.50326 7.12891 7.73438 7.03125 8.00781 7.03125C8.27474 7.03125 8.5026 7.12891 8.69141 7.32422C8.88672 7.51302 8.98438 7.74089 8.98438 8.00781C8.98438 8.27474 8.88672 8.50586 8.69141 8.70117C8.5026 8.88997 8.27474 8.98438 8.00781 8.98438ZM8.00781 1.95312C7.73438 1.95312 7.50326 1.85872 7.31445 1.66992C7.12565 1.47461 7.03125 1.24349 7.03125 0.976562C7.03125 0.709635 7.12565 0.481771 7.31445 0.292969C7.50326 0.0976562 7.73438 0 8.00781 0C8.27474 0 8.5026 0.0976562 8.69141 0.292969C8.88672 0.481771 8.98438 0.709635 8.98438 0.976562C8.98438 1.24349 8.88672 1.47461 8.69141 1.66992C8.5026 1.85872 8.27474 1.95312 8.00781 1.95312ZM10.3516 16.0156C10.0781 16.0156 9.84701 15.9212 9.6582 15.7324C9.4694 15.5371 9.375 15.306 9.375 15.0391C9.375 14.7721 9.4694 14.5443 9.6582 14.3555C9.84701 14.1602 10.0781 14.0625 10.3516 14.0625C10.6185 14.0625 10.8464 14.1602 11.0352 14.3555C11.2305 14.5443 11.3281 14.7721 11.3281 15.0391C11.3281 15.306 11.2305 15.5371 11.0352 15.7324C10.8464 15.9212 10.6185 16.0156 10.3516 16.0156ZM10.3516 6.64062C10.0781 6.64062 9.84701 6.54622 9.6582 6.35742C9.4694 6.16211 9.375 5.93099 9.375 5.66406C9.375 5.39714 9.4694 5.16927 9.6582 4.98047C9.84701 4.78516 10.0781 4.6875 10.3516 4.6875C10.6185 4.6875 10.8464 4.78516 11.0352 4.98047C11.2305 5.16927 11.3281 5.39714 11.3281 5.66406C11.3281 5.93099 11.2305 6.16211 11.0352 6.35742C10.8464 6.54622 10.6185 6.64062 10.3516 6.64062ZM10.3516 4.29688C10.0781 4.29688 9.84701 4.20247 9.6582 4.01367C9.4694 3.81836 9.375 3.58724 9.375 3.32031C9.375 3.05339 9.4694 2.82552 9.6582 2.63672C9.84701 2.44141 10.0781 2.34375 10.3516 2.34375C10.6185 2.34375 10.8464 2.44141 11.0352 2.63672C11.2305 2.82552 11.3281 3.05339 11.3281 3.32031C11.3281 3.58724 11.2305 3.81836 11.0352 4.01367C10.8464 4.20247 10.6185 4.29688 10.3516 4.29688Z" fill="white"/>
</svg>
