<svg width="64" height="17" viewBox="0 0 64 17" fill="none" xmlns="http://www.w3.org/2000/svg">
<path d="M53.2266 16.0156C52.9531 16.0156 52.722 15.9212 52.5332 15.7324C52.3444 15.5371 52.25 15.306 52.25 15.0391C52.25 14.7721 52.3444 14.5443 52.5332 14.3555C52.722 14.1602 52.9531 14.0625 53.2266 14.0625C53.4935 14.0625 53.7214 14.1602 53.9102 14.3555C54.1055 14.5443 54.2031 14.7721 54.2031 15.0391C54.2031 15.306 54.1055 15.5371 53.9102 15.7324C53.7214 15.9212 53.4935 16.0156 53.2266 16.0156ZM53.2266 13.6719C52.9531 13.6719 52.722 13.5775 52.5332 13.3887C52.3444 13.1934 52.25 12.9622 52.25 12.6953C52.25 12.4284 52.3444 12.2005 52.5332 12.0117C52.722 11.8164 52.9531 11.7188 53.2266 11.7188C53.4935 11.7188 53.7214 11.8164 53.9102 12.0117C54.1055 12.2005 54.2031 12.4284 54.2031 12.6953C54.2031 12.9622 54.1055 13.1934 53.9102 13.3887C53.7214 13.5775 53.4935 13.6719 53.2266 13.6719ZM53.2266 11.3281C52.9531 11.3281 52.722 11.2337 52.5332 11.0449C52.3444 10.8496 52.25 10.6185 52.25 10.3516C52.25 10.0846 52.3444 9.85677 52.5332 9.66797C52.722 9.47266 52.9531 9.375 53.2266 9.375C53.4935 9.375 53.7214 9.47266 53.9102 9.66797C54.1055 9.85677 54.2031 10.0846 54.2031 10.3516C54.2031 10.6185 54.1055 10.8496 53.9102 11.0449C53.7214 11.2337 53.4935 11.3281 53.2266 11.3281ZM53.2266 8.98438C52.9531 8.98438 52.722 8.88997 52.5332 8.70117C52.3444 8.50586 52.25 8.27474 52.25 8.00781C52.25 7.74089 52.3444 7.51302 52.5332 7.32422C52.722 7.12891 52.9531 7.03125 53.2266 7.03125C53.4935 7.03125 53.7214 7.12891 53.9102 7.32422C54.1055 7.51302 54.2031 7.74089 54.2031 8.00781C54.2031 8.27474 54.1055 8.50586 53.9102 8.70117C53.7214 8.88997 53.4935 8.98438 53.2266 8.98438ZM53.2266 6.64062C52.9531 6.64062 52.722 6.54622 52.5332 6.35742C52.3444 6.16211 52.25 5.93099 52.25 5.66406C52.25 5.39714 52.3444 5.16927 52.5332 4.98047C52.722 4.78516 52.9531 4.6875 53.2266 4.6875C53.4935 4.6875 53.7214 4.78516 53.9102 4.98047C54.1055 5.16927 54.2031 5.39714 54.2031 5.66406C54.2031 5.93099 54.1055 6.16211 53.9102 6.35742C53.7214 6.54622 53.4935 6.64062 53.2266 6.64062ZM53.2266 4.29688C52.9531 4.29688 52.722 4.20247 52.5332 4.01367C52.3444 3.81836 52.25 3.58724 52.25 3.32031C52.25 3.05339 52.3444 2.82552 52.5332 2.63672C52.722 2.44141 52.9531 2.34375 53.2266 2.34375C53.4935 2.34375 53.7214 2.44141 53.9102 2.63672C54.1055 2.82552 54.2031 3.05339 54.2031 3.32031C54.2031 3.58724 54.1055 3.81836 53.9102 4.01367C53.7214 4.20247 53.4935 4.29688 53.2266 4.29688ZM53.2266 1.95312C52.9531 1.95312 52.722 1.85872 52.5332 1.66992C52.3444 1.47461 52.25 1.24349 52.25 0.976562C52.25 0.709635 52.3444 0.481771 52.5332 0.292969C52.722 0.0976562 52.9531 0 53.2266 0C53.4935 0 53.7214 0.0976562 53.9102 0.292969C54.1055 0.481771 54.2031 0.709635 54.2031 0.976562C54.2031 1.24349 54.1055 1.47461 53.9102 1.66992C53.7214 1.85872 53.4935 1.95312 53.2266 1.95312ZM55.5703 8.98438C55.2969 8.98438 55.0658 8.88997 54.877 8.70117C54.6882 8.50586 54.5938 8.27474 54.5938 8.00781C54.5938 7.74089 54.6882 7.51302 54.877 7.32422C55.0658 7.12891 55.2969 7.03125 55.5703 7.03125C55.8372 7.03125 56.0651 7.12891 56.2539 7.32422C56.4492 7.51302 56.5469 7.74089 56.5469 8.00781C56.5469 8.27474 56.4492 8.50586 56.2539 8.70117C56.0651 8.88997 55.8372 8.98438 55.5703 8.98438ZM57.9141 8.98438C57.6406 8.98438 57.4095 8.88997 57.2207 8.70117C57.0319 8.50586 56.9375 8.27474 56.9375 8.00781C56.9375 7.74089 57.0319 7.51302 57.2207 7.32422C57.4095 7.12891 57.6406 7.03125 57.9141 7.03125C58.181 7.03125 58.4089 7.12891 58.5977 7.32422C58.793 7.51302 58.8906 7.74089 58.8906 8.00781C58.8906 8.27474 58.793 8.50586 58.5977 8.70117C58.4089 8.88997 58.181 8.98438 57.9141 8.98438ZM60.2578 8.98438C59.9844 8.98438 59.7533 8.88997 59.5645 8.70117C59.3757 8.50586 59.2812 8.27474 59.2812 8.00781C59.2812 7.74089 59.3757 7.51302 59.5645 7.32422C59.7533 7.12891 59.9844 7.03125 60.2578 7.03125C60.5247 7.03125 60.7526 7.12891 60.9414 7.32422C61.1367 7.51302 61.2344 7.74089 61.2344 8.00781C61.2344 8.27474 61.1367 8.50586 60.9414 8.70117C60.7526 8.88997 60.5247 8.98438 60.2578 8.98438ZM62.6016 16.0156C62.3281 16.0156 62.097 15.9212 61.9082 15.7324C61.7194 15.5371 61.625 15.306 61.625 15.0391C61.625 14.7721 61.7194 14.5443 61.9082 14.3555C62.097 14.1602 62.3281 14.0625 62.6016 14.0625C62.8685 14.0625 63.0964 14.1602 63.2852 14.3555C63.4805 14.5443 63.5781 14.7721 63.5781 15.0391C63.5781 15.306 63.4805 15.5371 63.2852 15.7324C63.0964 15.9212 62.8685 16.0156 62.6016 16.0156ZM62.6016 13.6719C62.3281 13.6719 62.097 13.5775 61.9082 13.3887C61.7194 13.1934 61.625 12.9622 61.625 12.6953C61.625 12.4284 61.7194 12.2005 61.9082 12.0117C62.097 11.8164 62.3281 11.7188 62.6016 11.7188C62.8685 11.7188 63.0964 11.8164 63.2852 12.0117C63.4805 12.2005 63.5781 12.4284 63.5781 12.6953C63.5781 12.9622 63.4805 13.1934 63.2852 13.3887C63.0964 13.5775 62.8685 13.6719 62.6016 13.6719ZM62.6016 11.3281C62.3281 11.3281 62.097 11.2337 61.9082 11.0449C61.7194 10.8496 61.625 10.6185 61.625 10.3516C61.625 10.0846 61.7194 9.85677 61.9082 9.66797C62.097 9.47266 62.3281 9.375 62.6016 9.375C62.8685 9.375 63.0964 9.47266 63.2852 9.66797C63.4805 9.85677 63.5781 10.0846 63.5781 10.3516C63.5781 10.6185 63.4805 10.8496 63.2852 11.0449C63.0964 11.2337 62.8685 11.3281 62.6016 11.3281ZM62.6016 8.98438C62.3281 8.98438 62.097 8.88997 61.9082 8.70117C61.7194 8.50586 61.625 8.27474 61.625 8.00781C61.625 7.74089 61.7194 7.51302 61.9082 7.32422C62.097 7.12891 62.3281 7.03125 62.6016 7.03125C62.8685 7.03125 63.0964 7.12891 63.2852 7.32422C63.4805 7.51302 63.5781 7.74089 63.5781 8.00781C63.5781 8.27474 63.4805 8.50586 63.2852 8.70117C63.0964 8.88997 62.8685 8.98438 62.6016 8.98438ZM62.6016 6.64062C62.3281 6.64062 62.097 6.54622 61.9082 6.35742C61.7194 6.16211 61.625 5.93099 61.625 5.66406C61.625 5.39714 61.7194 5.16927 61.9082 4.98047C62.097 4.78516 62.3281 4.6875 62.6016 4.6875C62.8685 4.6875 63.0964 4.78516 63.2852 4.98047C63.4805 5.16927 63.5781 5.39714 63.5781 5.66406C63.5781 5.93099 63.4805 6.16211 63.2852 6.35742C63.0964 6.54622 62.8685 6.64062 62.6016 6.64062ZM62.6016 4.29688C62.3281 4.29688 62.097 4.20247 61.9082 4.01367C61.7194 3.81836 61.625 3.58724 61.625 3.32031C61.625 3.05339 61.7194 2.82552 61.9082 2.63672C62.097 2.44141 62.3281 2.34375 62.6016 2.34375C62.8685 2.34375 63.0964 2.44141 63.2852 2.63672C63.4805 2.82552 63.5781 3.05339 63.5781 3.32031C63.5781 3.58724 63.4805 3.81836 63.2852 4.01367C63.0964 4.20247 62.8685 4.29688 62.6016 4.29688ZM62.6016 1.95312C62.3281 1.95312 62.097 1.85872 61.9082 1.66992C61.7194 1.47461 61.625 1.24349 61.625 0.976562C61.625 0.709635 61.7194 0.481771 61.9082 0.292969C62.097 0.0976562 62.3281 0 62.6016 0C62.8685 0 63.0964 0.0976562 63.2852 0.292969C63.4805 0.481771 63.5781 0.709635 63.5781 0.976562C63.5781 1.24349 63.4805 1.47461 63.2852 1.66992C63.0964 1.85872 62.8685 1.95312 62.6016 1.95312Z" fill="white"/>
<path d="M39.5645 1.95312C39.291 1.95312 39.0599 1.85872 38.8711 1.66992C38.6823 1.47461 38.5879 1.24349 38.5879 0.976562C38.5879 0.709635 38.6823 0.481771 38.8711 0.292969C39.0599 0.0976562 39.291 0 39.5645 0C39.8314 0 40.0592 0.0976562 40.248 0.292969C40.4434 0.481771 40.541 0.709635 40.541 0.976562C40.541 1.24349 40.4434 1.47461 40.248 1.66992C40.0592 1.85872 39.8314 1.95312 39.5645 1.95312ZM41.9082 1.95312C41.6348 1.95312 41.4036 1.85872 41.2148 1.66992C41.026 1.47461 40.9316 1.24349 40.9316 0.976562C40.9316 0.709635 41.026 0.481771 41.2148 0.292969C41.4036 0.0976562 41.6348 0 41.9082 0C42.1751 0 42.403 0.0976562 42.5918 0.292969C42.7871 0.481771 42.8848 0.709635 42.8848 0.976562C42.8848 1.24349 42.7871 1.47461 42.5918 1.66992C42.403 1.85872 42.1751 1.95312 41.9082 1.95312ZM44.252 16.0156C43.9785 16.0156 43.7474 15.9212 43.5586 15.7324C43.3698 15.5371 43.2754 15.306 43.2754 15.0391C43.2754 14.7721 43.3698 14.5443 43.5586 14.3555C43.7474 14.1602 43.9785 14.0625 44.252 14.0625C44.5189 14.0625 44.7467 14.1602 44.9355 14.3555C45.1309 14.5443 45.2285 14.7721 45.2285 15.0391C45.2285 15.306 45.1309 15.5371 44.9355 15.7324C44.7467 15.9212 44.5189 16.0156 44.252 16.0156ZM44.252 13.6719C43.9785 13.6719 43.7474 13.5775 43.5586 13.3887C43.3698 13.1934 43.2754 12.9622 43.2754 12.6953C43.2754 12.4284 43.3698 12.2005 43.5586 12.0117C43.7474 11.8164 43.9785 11.7188 44.252 11.7188C44.5189 11.7188 44.7467 11.8164 44.9355 12.0117C45.1309 12.2005 45.2285 12.4284 45.2285 12.6953C45.2285 12.9622 45.1309 13.1934 44.9355 13.3887C44.7467 13.5775 44.5189 13.6719 44.252 13.6719ZM44.252 11.3281C43.9785 11.3281 43.7474 11.2337 43.5586 11.0449C43.3698 10.8496 43.2754 10.6185 43.2754 10.3516C43.2754 10.0846 43.3698 9.85677 43.5586 9.66797C43.7474 9.47266 43.9785 9.375 44.252 9.375C44.5189 9.375 44.7467 9.47266 44.9355 9.66797C45.1309 9.85677 45.2285 10.0846 45.2285 10.3516C45.2285 10.6185 45.1309 10.8496 44.9355 11.0449C44.7467 11.2337 44.5189 11.3281 44.252 11.3281ZM44.252 8.98438C43.9785 8.98438 43.7474 8.88997 43.5586 8.70117C43.3698 8.50586 43.2754 8.27474 43.2754 8.00781C43.2754 7.74089 43.3698 7.51302 43.5586 7.32422C43.7474 7.12891 43.9785 7.03125 44.252 7.03125C44.5189 7.03125 44.7467 7.12891 44.9355 7.32422C45.1309 7.51302 45.2285 7.74089 45.2285 8.00781C45.2285 8.27474 45.1309 8.50586 44.9355 8.70117C44.7467 8.88997 44.5189 8.98438 44.252 8.98438ZM44.252 6.64062C43.9785 6.64062 43.7474 6.54622 43.5586 6.35742C43.3698 6.16211 43.2754 5.93099 43.2754 5.66406C43.2754 5.39714 43.3698 5.16927 43.5586 4.98047C43.7474 4.78516 43.9785 4.6875 44.252 4.6875C44.5189 4.6875 44.7467 4.78516 44.9355 4.98047C45.1309 5.16927 45.2285 5.39714 45.2285 5.66406C45.2285 5.93099 45.1309 6.16211 44.9355 6.35742C44.7467 6.54622 44.5189 6.64062 44.252 6.64062ZM44.252 4.29688C43.9785 4.29688 43.7474 4.20247 43.5586 4.01367C43.3698 3.81836 43.2754 3.58724 43.2754 3.32031C43.2754 3.05339 43.3698 2.82552 43.5586 2.63672C43.7474 2.44141 43.9785 2.34375 44.252 2.34375C44.5189 2.34375 44.7467 2.44141 44.9355 2.63672C45.1309 2.82552 45.2285 3.05339 45.2285 3.32031C45.2285 3.58724 45.1309 3.81836 44.9355 4.01367C44.7467 4.20247 44.5189 4.29688 44.252 4.29688ZM44.252 1.95312C43.9785 1.95312 43.7474 1.85872 43.5586 1.66992C43.3698 1.47461 43.2754 1.24349 43.2754 0.976562C43.2754 0.709635 43.3698 0.481771 43.5586 0.292969C43.7474 0.0976562 43.9785 0 44.252 0C44.5189 0 44.7467 0.0976562 44.9355 0.292969C45.1309 0.481771 45.2285 0.709635 45.2285 0.976562C45.2285 1.24349 45.1309 1.47461 44.9355 1.66992C44.7467 1.85872 44.5189 1.95312 44.252 1.95312ZM46.5957 1.95312C46.3223 1.95312 46.0911 1.85872 45.9023 1.66992C45.7135 1.47461 45.6191 1.24349 45.6191 0.976562C45.6191 0.709635 45.7135 0.481771 45.9023 0.292969C46.0911 0.0976562 46.3223 0 46.5957 0C46.8626 0 47.0905 0.0976562 47.2793 0.292969C47.4746 0.481771 47.5723 0.709635 47.5723 0.976562C47.5723 1.24349 47.4746 1.47461 47.2793 1.66992C47.0905 1.85872 46.8626 1.95312 46.5957 1.95312ZM48.9395 1.95312C48.666 1.95312 48.4349 1.85872 48.2461 1.66992C48.0573 1.47461 47.9629 1.24349 47.9629 0.976562C47.9629 0.709635 48.0573 0.481771 48.2461 0.292969C48.4349 0.0976562 48.666 0 48.9395 0C49.2064 0 49.4342 0.0976562 49.623 0.292969C49.8184 0.481771 49.916 0.709635 49.916 0.976562C49.916 1.24349 49.8184 1.47461 49.623 1.66992C49.4342 1.85872 49.2064 1.95312 48.9395 1.95312Z" fill="white"/>
<path d="M25.9014 16.0156C25.6279 16.0156 25.3968 15.9212 25.208 15.7324C25.0192 15.5371 24.9248 15.306 24.9248 15.0391C24.9248 14.7721 25.0192 14.5443 25.208 14.3555C25.3968 14.1602 25.6279 14.0625 25.9014 14.0625C26.1683 14.0625 26.3962 14.1602 26.585 14.3555C26.7803 14.5443 26.8779 14.7721 26.8779 15.0391C26.8779 15.306 26.7803 15.5371 26.585 15.7324C26.3962 15.9212 26.1683 16.0156 25.9014 16.0156ZM25.9014 13.6719C25.6279 13.6719 25.3968 13.5775 25.208 13.3887C25.0192 13.1934 24.9248 12.9622 24.9248 12.6953C24.9248 12.4284 25.0192 12.2005 25.208 12.0117C25.3968 11.8164 25.6279 11.7188 25.9014 11.7188C26.1683 11.7188 26.3962 11.8164 26.585 12.0117C26.7803 12.2005 26.8779 12.4284 26.8779 12.6953C26.8779 12.9622 26.7803 13.1934 26.585 13.3887C26.3962 13.5775 26.1683 13.6719 25.9014 13.6719ZM25.9014 11.3281C25.6279 11.3281 25.3968 11.2337 25.208 11.0449C25.0192 10.8496 24.9248 10.6185 24.9248 10.3516C24.9248 10.0846 25.0192 9.85677 25.208 9.66797C25.3968 9.47266 25.6279 9.375 25.9014 9.375C26.1683 9.375 26.3962 9.47266 26.585 9.66797C26.7803 9.85677 26.8779 10.0846 26.8779 10.3516C26.8779 10.6185 26.7803 10.8496 26.585 11.0449C26.3962 11.2337 26.1683 11.3281 25.9014 11.3281ZM25.9014 8.98438C25.6279 8.98438 25.3968 8.88997 25.208 8.70117C25.0192 8.50586 24.9248 8.27474 24.9248 8.00781C24.9248 7.74089 25.0192 7.51302 25.208 7.32422C25.3968 7.12891 25.6279 7.03125 25.9014 7.03125C26.1683 7.03125 26.3962 7.12891 26.585 7.32422C26.7803 7.51302 26.8779 7.74089 26.8779 8.00781C26.8779 8.27474 26.7803 8.50586 26.585 8.70117C26.3962 8.88997 26.1683 8.98438 25.9014 8.98438ZM25.9014 6.64062C25.6279 6.64062 25.3968 6.54622 25.208 6.35742C25.0192 6.16211 24.9248 5.93099 24.9248 5.66406C24.9248 5.39714 25.0192 5.16927 25.208 4.98047C25.3968 4.78516 25.6279 4.6875 25.9014 4.6875C26.1683 4.6875 26.3962 4.78516 26.585 4.98047C26.7803 5.16927 26.8779 5.39714 26.8779 5.66406C26.8779 5.93099 26.7803 6.16211 26.585 6.35742C26.3962 6.54622 26.1683 6.64062 25.9014 6.64062ZM25.9014 4.29688C25.6279 4.29688 25.3968 4.20247 25.208 4.01367C25.0192 3.81836 24.9248 3.58724 24.9248 3.32031C24.9248 3.05339 25.0192 2.82552 25.208 2.63672C25.3968 2.44141 25.6279 2.34375 25.9014 2.34375C26.1683 2.34375 26.3962 2.44141 26.585 2.63672C26.7803 2.82552 26.8779 3.05339 26.8779 3.32031C26.8779 3.58724 26.7803 3.81836 26.585 4.01367C26.3962 4.20247 26.1683 4.29688 25.9014 4.29688ZM25.9014 1.95312C25.6279 1.95312 25.3968 1.85872 25.208 1.66992C25.0192 1.47461 24.9248 1.24349 24.9248 0.976562C24.9248 0.709635 25.0192 0.481771 25.208 0.292969C25.3968 0.0976562 25.6279 0 25.9014 0C26.1683 0 26.3962 0.0976562 26.585 0.292969C26.7803 0.481771 26.8779 0.709635 26.8779 0.976562C26.8779 1.24349 26.7803 1.47461 26.585 1.66992C26.3962 1.85872 26.1683 1.95312 25.9014 1.95312ZM28.2451 8.98438C27.9717 8.98438 27.7406 8.88997 27.5518 8.70117C27.363 8.50586 27.2686 8.27474 27.2686 8.00781C27.2686 7.74089 27.363 7.51302 27.5518 7.32422C27.7406 7.12891 27.9717 7.03125 28.2451 7.03125C28.512 7.03125 28.7399 7.12891 28.9287 7.32422C29.124 7.51302 29.2217 7.74089 29.2217 8.00781C29.2217 8.27474 29.124 8.50586 28.9287 8.70117C28.7399 8.88997 28.512 8.98438 28.2451 8.98438ZM28.2451 1.95312C27.9717 1.95312 27.7406 1.85872 27.5518 1.66992C27.363 1.47461 27.2686 1.24349 27.2686 0.976562C27.2686 0.709635 27.363 0.481771 27.5518 0.292969C27.7406 0.0976562 27.9717 0 28.2451 0C28.512 0 28.7399 0.0976562 28.9287 0.292969C29.124 0.481771 29.2217 0.709635 29.2217 0.976562C29.2217 1.24349 29.124 1.47461 28.9287 1.66992C28.7399 1.85872 28.512 1.95312 28.2451 1.95312ZM30.5889 8.98438C30.3154 8.98438 30.0843 8.88997 29.8955 8.70117C29.7067 8.50586 29.6123 8.27474 29.6123 8.00781C29.6123 7.74089 29.7067 7.51302 29.8955 7.32422C30.0843 7.12891 30.3154 7.03125 30.5889 7.03125C30.8558 7.03125 31.0837 7.12891 31.2725 7.32422C31.4678 7.51302 31.5654 7.74089 31.5654 8.00781C31.5654 8.27474 31.4678 8.50586 31.2725 8.70117C31.0837 8.88997 30.8558 8.98438 30.5889 8.98438ZM30.5889 1.95312C30.3154 1.95312 30.0843 1.85872 29.8955 1.66992C29.7067 1.47461 29.6123 1.24349 29.6123 0.976562C29.6123 0.709635 29.7067 0.481771 29.8955 0.292969C30.0843 0.0976562 30.3154 0 30.5889 0C30.8558 0 31.0837 0.0976562 31.2725 0.292969C31.4678 0.481771 31.5654 0.709635 31.5654 0.976562C31.5654 1.24349 31.4678 1.47461 31.2725 1.66992C31.0837 1.85872 30.8558 1.95312 30.5889 1.95312ZM32.9326 8.98438C32.6592 8.98438 32.4281 8.88997 32.2393 8.70117C32.0505 8.50586 31.9561 8.27474 31.9561 8.00781C31.9561 7.74089 32.0505 7.51302 32.2393 7.32422C32.4281 7.12891 32.6592 7.03125 32.9326 7.03125C33.1995 7.03125 33.4274 7.12891 33.6162 7.32422C33.8115 7.51302 33.9092 7.74089 33.9092 8.00781C33.9092 8.27474 33.8115 8.50586 33.6162 8.70117C33.4274 8.88997 33.1995 8.98438 32.9326 8.98438ZM32.9326 1.95312C32.6592 1.95312 32.4281 1.85872 32.2393 1.66992C32.0505 1.47461 31.9561 1.24349 31.9561 0.976562C31.9561 0.709635 32.0505 0.481771 32.2393 0.292969C32.4281 0.0976562 32.6592 0 32.9326 0C33.1995 0 33.4274 0.0976562 33.6162 0.292969C33.8115 0.481771 33.9092 0.709635 33.9092 0.976562C33.9092 1.24349 33.8115 1.47461 33.6162 1.66992C33.4274 1.85872 33.1995 1.95312 32.9326 1.95312ZM35.2764 6.64062C35.0029 6.64062 34.7718 6.54622 34.583 6.35742C34.3942 6.16211 34.2998 5.93099 34.2998 5.66406C34.2998 5.39714 34.3942 5.16927 34.583 4.98047C34.7718 4.78516 35.0029 4.6875 35.2764 4.6875C35.5433 4.6875 35.7712 4.78516 35.96 4.98047C36.1553 5.16927 36.2529 5.39714 36.2529 5.66406C36.2529 5.93099 36.1553 6.16211 35.96 6.35742C35.7712 6.54622 35.5433 6.64062 35.2764 6.64062ZM35.2764 4.29688C35.0029 4.29688 34.7718 4.20247 34.583 4.01367C34.3942 3.81836 34.2998 3.58724 34.2998 3.32031C34.2998 3.05339 34.3942 2.82552 34.583 2.63672C34.7718 2.44141 35.0029 2.34375 35.2764 2.34375C35.5433 2.34375 35.7712 2.44141 35.96 2.63672C36.1553 2.82552 36.2529 3.05339 36.2529 3.32031C36.2529 3.58724 36.1553 3.81836 35.96 4.01367C35.7712 4.20247 35.5433 4.29688 35.2764 4.29688ZM30.5889 11.3281C30.3154 11.3281 30.0843 11.2337 29.8955 11.0449C29.7067 10.8496 29.6123 10.6185 29.6123 10.3516C29.6123 10.0846 29.7067 9.85677 29.8955 9.66797C30.0843 9.47266 30.3154 9.375 30.5889 9.375C30.8558 9.375 31.0837 9.47266 31.2725 9.66797C31.4678 9.85677 31.5654 10.0846 31.5654 10.3516C31.5654 10.6185 31.4678 10.8496 31.2725 11.0449C31.0837 11.2337 30.8558 11.3281 30.5889 11.3281ZM32.9326 13.6719C32.6592 13.6719 32.4281 13.5775 32.2393 13.3887C32.0505 13.1934 31.9561 12.9622 31.9561 12.6953C31.9561 12.4284 32.0505 12.2005 32.2393 12.0117C32.4281 11.8164 32.6592 11.7188 32.9326 11.7188C33.1995 11.7188 33.4274 11.8164 33.6162 12.0117C33.8115 12.2005 33.9092 12.4284 33.9092 12.6953C33.9092 12.9622 33.8115 13.1934 33.6162 13.3887C33.4274 13.5775 33.1995 13.6719 32.9326 13.6719ZM35.2764 16.0156C35.0029 16.0156 34.7718 15.9212 34.583 15.7324C34.3942 15.5371 34.2998 15.306 34.2998 15.0391C34.2998 14.7721 34.3942 14.5443 34.583 14.3555C34.7718 14.1602 35.0029 14.0625 35.2764 14.0625C35.5433 14.0625 35.7712 14.1602 35.96 14.3555C36.1553 14.5443 36.2529 14.7721 36.2529 15.0391C36.2529 15.306 36.1553 15.5371 35.96 15.7324C35.7712 15.9212 35.5433 16.0156 35.2764 16.0156Z" fill="white"/>
<path d="M15.583 16.0156C15.3096 16.0156 15.0785 15.9212 14.8896 15.7324C14.7008 15.5371 14.6064 15.306 14.6064 15.0391C14.6064 14.7721 14.7008 14.5443 14.8896 14.3555C15.0785 14.1602 15.3096 14.0625 15.583 14.0625C15.8499 14.0625 16.0778 14.1602 16.2666 14.3555C16.4619 14.5443 16.5596 14.7721 16.5596 15.0391C16.5596 15.306 16.4619 15.5371 16.2666 15.7324C16.0778 15.9212 15.8499 16.0156 15.583 16.0156ZM15.583 1.95312C15.3096 1.95312 15.0785 1.85872 14.8896 1.66992C14.7008 1.47461 14.6064 1.24349 14.6064 0.976562C14.6064 0.709635 14.7008 0.481771 14.8896 0.292969C15.0785 0.0976562 15.3096 0 15.583 0C15.8499 0 16.0778 0.0976562 16.2666 0.292969C16.4619 0.481771 16.5596 0.709635 16.5596 0.976562C16.5596 1.24349 16.4619 1.47461 16.2666 1.66992C16.0778 1.85872 15.8499 1.95312 15.583 1.95312ZM17.9268 16.0156C17.6533 16.0156 17.4222 15.9212 17.2334 15.7324C17.0446 15.5371 16.9502 15.306 16.9502 15.0391C16.9502 14.7721 17.0446 14.5443 17.2334 14.3555C17.4222 14.1602 17.6533 14.0625 17.9268 14.0625C18.1937 14.0625 18.4216 14.1602 18.6104 14.3555C18.8057 14.5443 18.9033 14.7721 18.9033 15.0391C18.9033 15.306 18.8057 15.5371 18.6104 15.7324C18.4216 15.9212 18.1937 16.0156 17.9268 16.0156ZM17.9268 13.6719C17.6533 13.6719 17.4222 13.5775 17.2334 13.3887C17.0446 13.1934 16.9502 12.9622 16.9502 12.6953C16.9502 12.4284 17.0446 12.2005 17.2334 12.0117C17.4222 11.8164 17.6533 11.7188 17.9268 11.7188C18.1937 11.7188 18.4216 11.8164 18.6104 12.0117C18.8057 12.2005 18.9033 12.4284 18.9033 12.6953C18.9033 12.9622 18.8057 13.1934 18.6104 13.3887C18.4216 13.5775 18.1937 13.6719 17.9268 13.6719ZM17.9268 11.3281C17.6533 11.3281 17.4222 11.2337 17.2334 11.0449C17.0446 10.8496 16.9502 10.6185 16.9502 10.3516C16.9502 10.0846 17.0446 9.85677 17.2334 9.66797C17.4222 9.47266 17.6533 9.375 17.9268 9.375C18.1937 9.375 18.4216 9.47266 18.6104 9.66797C18.8057 9.85677 18.9033 10.0846 18.9033 10.3516C18.9033 10.6185 18.8057 10.8496 18.6104 11.0449C18.4216 11.2337 18.1937 11.3281 17.9268 11.3281ZM17.9268 8.98438C17.6533 8.98438 17.4222 8.88997 17.2334 8.70117C17.0446 8.50586 16.9502 8.27474 16.9502 8.00781C16.9502 7.74089 17.0446 7.51302 17.2334 7.32422C17.4222 7.12891 17.6533 7.03125 17.9268 7.03125C18.1937 7.03125 18.4216 7.12891 18.6104 7.32422C18.8057 7.51302 18.9033 7.74089 18.9033 8.00781C18.9033 8.27474 18.8057 8.50586 18.6104 8.70117C18.4216 8.88997 18.1937 8.98438 17.9268 8.98438ZM17.9268 6.64062C17.6533 6.64062 17.4222 6.54622 17.2334 6.35742C17.0446 6.16211 16.9502 5.93099 16.9502 5.66406C16.9502 5.39714 17.0446 5.16927 17.2334 4.98047C17.4222 4.78516 17.6533 4.6875 17.9268 4.6875C18.1937 4.6875 18.4216 4.78516 18.6104 4.98047C18.8057 5.16927 18.9033 5.39714 18.9033 5.66406C18.9033 5.93099 18.8057 6.16211 18.6104 6.35742C18.4216 6.54622 18.1937 6.64062 17.9268 6.64062ZM17.9268 4.29688C17.6533 4.29688 17.4222 4.20247 17.2334 4.01367C17.0446 3.81836 16.9502 3.58724 16.9502 3.32031C16.9502 3.05339 17.0446 2.82552 17.2334 2.63672C17.4222 2.44141 17.6533 2.34375 17.9268 2.34375C18.1937 2.34375 18.4216 2.44141 18.6104 2.63672C18.8057 2.82552 18.9033 3.05339 18.9033 3.32031C18.9033 3.58724 18.8057 3.81836 18.6104 4.01367C18.4216 4.20247 18.1937 4.29688 17.9268 4.29688ZM17.9268 1.95312C17.6533 1.95312 17.4222 1.85872 17.2334 1.66992C17.0446 1.47461 16.9502 1.24349 16.9502 0.976562C16.9502 0.709635 17.0446 0.481771 17.2334 0.292969C17.4222 0.0976562 17.6533 0 17.9268 0C18.1937 0 18.4216 0.0976562 18.6104 0.292969C18.8057 0.481771 18.9033 0.709635 18.9033 0.976562C18.9033 1.24349 18.8057 1.47461 18.6104 1.66992C18.4216 1.85872 18.1937 1.95312 17.9268 1.95312ZM20.2705 16.0156C19.9971 16.0156 19.766 15.9212 19.5771 15.7324C19.3883 15.5371 19.2939 15.306 19.2939 15.0391C19.2939 14.7721 19.3883 14.5443 19.5771 14.3555C19.766 14.1602 19.9971 14.0625 20.2705 14.0625C20.5374 14.0625 20.7653 14.1602 20.9541 14.3555C21.1494 14.5443 21.2471 14.7721 21.2471 15.0391C21.2471 15.306 21.1494 15.5371 20.9541 15.7324C20.7653 15.9212 20.5374 16.0156 20.2705 16.0156ZM20.2705 1.95312C19.9971 1.95312 19.766 1.85872 19.5771 1.66992C19.3883 1.47461 19.2939 1.24349 19.2939 0.976562C19.2939 0.709635 19.3883 0.481771 19.5771 0.292969C19.766 0.0976562 19.9971 0 20.2705 0C20.5374 0 20.7653 0.0976562 20.9541 0.292969C21.1494 0.481771 21.2471 0.709635 21.2471 0.976562C21.2471 1.24349 21.1494 1.47461 20.9541 1.66992C20.7653 1.85872 20.5374 1.95312 20.2705 1.95312Z" fill="white"/>
<path d="M0.976562 16.0156C0.703125 16.0156 0.472005 15.9212 0.283203 15.7324C0.094401 15.5371 0 15.306 0 15.0391C0 14.7721 0.094401 14.5443 0.283203 14.3555C0.472005 14.1602 0.703125 14.0625 0.976562 14.0625C1.24349 14.0625 1.47135 14.1602 1.66016 14.3555C1.85547 14.5443 1.95312 14.7721 1.95312 15.0391C1.95312 15.306 1.85547 15.5371 1.66016 15.7324C1.47135 15.9212 1.24349 16.0156 0.976562 16.0156ZM0.976562 1.95312C0.703125 1.95312 0.472005 1.85872 0.283203 1.66992C0.094401 1.47461 0 1.24349 0 0.976562C0 0.709635 0.094401 0.481771 0.283203 0.292969C0.472005 0.0976562 0.703125 0 0.976562 0C1.24349 0 1.47135 0.0976562 1.66016 0.292969C1.85547 0.481771 1.95312 0.709635 1.95312 0.976562C1.95312 1.24349 1.85547 1.47461 1.66016 1.66992C1.47135 1.85872 1.24349 1.95312 0.976562 1.95312ZM3.32031 16.0156C3.04688 16.0156 2.81576 15.9212 2.62695 15.7324C2.43815 15.5371 2.34375 15.306 2.34375 15.0391C2.34375 14.7721 2.43815 14.5443 2.62695 14.3555C2.81576 14.1602 3.04688 14.0625 3.32031 14.0625C3.58724 14.0625 3.8151 14.1602 4.00391 14.3555C4.19922 14.5443 4.29688 14.7721 4.29688 15.0391C4.29688 15.306 4.19922 15.5371 4.00391 15.7324C3.8151 15.9212 3.58724 16.0156 3.32031 16.0156ZM3.32031 1.95312C3.04688 1.95312 2.81576 1.85872 2.62695 1.66992C2.43815 1.47461 2.34375 1.24349 2.34375 0.976562C2.34375 0.709635 2.43815 0.481771 2.62695 0.292969C2.81576 0.0976562 3.04688 0 3.32031 0C3.58724 0 3.8151 0.0976562 4.00391 0.292969C4.19922 0.481771 4.29688 0.709635 4.29688 0.976562C4.29688 1.24349 4.19922 1.47461 4.00391 1.66992C3.8151 1.85872 3.58724 1.95312 3.32031 1.95312ZM5.66406 16.0156C5.39062 16.0156 5.15951 15.9212 4.9707 15.7324C4.7819 15.5371 4.6875 15.306 4.6875 15.0391C4.6875 14.7721 4.7819 14.5443 4.9707 14.3555C5.15951 14.1602 5.39062 14.0625 5.66406 14.0625C5.93099 14.0625 6.15885 14.1602 6.34766 14.3555C6.54297 14.5443 6.64062 14.7721 6.64062 15.0391C6.64062 15.306 6.54297 15.5371 6.34766 15.7324C6.15885 15.9212 5.93099 16.0156 5.66406 16.0156ZM5.66406 8.98438C5.39062 8.98438 5.15951 8.88997 4.9707 8.70117C4.7819 8.50586 4.6875 8.27474 4.6875 8.00781C4.6875 7.74089 4.7819 7.51302 4.9707 7.32422C5.15951 7.12891 5.39062 7.03125 5.66406 7.03125C5.93099 7.03125 6.15885 7.12891 6.34766 7.32422C6.54297 7.51302 6.64062 7.74089 6.64062 8.00781C6.64062 8.27474 6.54297 8.50586 6.34766 8.70117C6.15885 8.88997 5.93099 8.98438 5.66406 8.98438ZM5.66406 1.95312C5.39062 1.95312 5.15951 1.85872 4.9707 1.66992C4.7819 1.47461 4.6875 1.24349 4.6875 0.976562C4.6875 0.709635 4.7819 0.481771 4.9707 0.292969C5.15951 0.0976562 5.39062 0 5.66406 0C5.93099 0 6.15885 0.0976562 6.34766 0.292969C6.54297 0.481771 6.64062 0.709635 6.64062 0.976562C6.64062 1.24349 6.54297 1.47461 6.34766 1.66992C6.15885 1.85872 5.93099 1.95312 5.66406 1.95312ZM8.00781 16.0156C7.73438 16.0156 7.50326 15.9212 7.31445 15.7324C7.12565 15.5371 7.03125 15.306 7.03125 15.0391C7.03125 14.7721 7.12565 14.5443 7.31445 14.3555C7.50326 14.1602 7.73438 14.0625 8.00781 14.0625C8.27474 14.0625 8.5026 14.1602 8.69141 14.3555C8.88672 14.5443 8.98438 14.7721 8.98438 15.0391C8.98438 15.306 8.88672 15.5371 8.69141 15.7324C8.5026 15.9212 8.27474 16.0156 8.00781 16.0156ZM8.00781 8.98438C7.73438 8.98438 7.50326 8.88997 7.31445 8.70117C7.12565 8.50586 7.03125 8.27474 7.03125 8.00781C7.03125 7.74089 7.12565 7.51302 7.31445 7.32422C7.50326 7.12891 7.73438 7.03125 8.00781 7.03125C8.27474 7.03125 8.5026 7.12891 8.69141 7.32422C8.88672 7.51302 8.98438 7.74089 8.98438 8.00781C8.98438 8.27474 8.88672 8.50586 8.69141 8.70117C8.5026 8.88997 8.27474 8.98438 8.00781 8.98438ZM8.00781 1.95312C7.73438 1.95312 7.50326 1.85872 7.31445 1.66992C7.12565 1.47461 7.03125 1.24349 7.03125 0.976562C7.03125 0.709635 7.12565 0.481771 7.31445 0.292969C7.50326 0.0976562 7.73438 0 8.00781 0C8.27474 0 8.5026 0.0976562 8.69141 0.292969C8.88672 0.481771 8.98438 0.709635 8.98438 0.976562C8.98438 1.24349 8.88672 1.47461 8.69141 1.66992C8.5026 1.85872 8.27474 1.95312 8.00781 1.95312ZM10.3516 13.6719C10.0781 13.6719 9.84701 13.5775 9.6582 13.3887C9.4694 13.1934 9.375 12.9622 9.375 12.6953C9.375 12.4284 9.4694 12.2005 9.6582 12.0117C9.84701 11.8164 10.0781 11.7188 10.3516 11.7188C10.6185 11.7188 10.8464 11.8164 11.0352 12.0117C11.2305 12.2005 11.3281 12.4284 11.3281 12.6953C11.3281 12.9622 11.2305 13.1934 11.0352 13.3887C10.8464 13.5775 10.6185 13.6719 10.3516 13.6719ZM10.3516 11.3281C10.0781 11.3281 9.84701 11.2337 9.6582 11.0449C9.4694 10.8496 9.375 10.6185 9.375 10.3516C9.375 10.0846 9.4694 9.85677 9.6582 9.66797C9.84701 9.47266 10.0781 9.375 10.3516 9.375C10.6185 9.375 10.8464 9.47266 11.0352 9.66797C11.2305 9.85677 11.3281 10.0846 11.3281 10.3516C11.3281 10.6185 11.2305 10.8496 11.0352 11.0449C10.8464 11.2337 10.6185 11.3281 10.3516 11.3281ZM10.3516 6.64062C10.0781 6.64062 9.84701 6.54622 9.6582 6.35742C9.4694 6.16211 9.375 5.93099 9.375 5.66406C9.375 5.39714 9.4694 5.16927 9.6582 4.98047C9.84701 4.78516 10.0781 4.6875 10.3516 4.6875C10.6185 4.6875 10.8464 4.78516 11.0352 4.98047C11.2305 5.16927 11.3281 5.39714 11.3281 5.66406C11.3281 5.93099 11.2305 6.16211 11.0352 6.35742C10.8464 6.54622 10.6185 6.64062 10.3516 6.64062ZM10.3516 4.29688C10.0781 4.29688 9.84701 4.20247 9.6582 4.01367C9.4694 3.81836 9.375 3.58724 9.375 3.32031C9.375 3.05339 9.4694 2.82552 9.6582 2.63672C9.84701 2.44141 10.0781 2.34375 10.3516 2.34375C10.6185 2.34375 10.8464 2.44141 11.0352 2.63672C11.2305 2.82552 11.3281 3.05339 11.3281 3.32031C11.3281 3.58724 11.2305 3.81836 11.0352 4.01367C10.8464 4.20247 10.6185 4.29688 10.3516 4.29688ZM3.32031 13.6719C3.04688 13.6719 2.81576 13.5775 2.62695 13.3887C2.43815 13.1934 2.34375 12.9622 2.34375 12.6953C2.34375 12.4284 2.43815 12.2005 2.62695 12.0117C2.81576 11.8164 3.04688 11.7188 3.32031 11.7188C3.58724 11.7188 3.8151 11.8164 4.00391 12.0117C4.19922 12.2005 4.29688 12.4284 4.29688 12.6953C4.29688 12.9622 4.19922 13.1934 4.00391 13.3887C3.8151 13.5775 3.58724 13.6719 3.32031 13.6719ZM3.32031 11.3281C3.04688 11.3281 2.81576 11.2337 2.62695 11.0449C2.43815 10.8496 2.34375 10.6185 2.34375 10.3516C2.34375 10.0846 2.43815 9.85677 2.62695 9.66797C2.81576 9.47266 3.04688 9.375 3.32031 9.375C3.58724 9.375 3.8151 9.47266 4.00391 9.66797C4.19922 9.85677 4.29688 10.0846 4.29688 10.3516C4.29688 10.6185 4.19922 10.8496 4.00391 11.0449C3.8151 11.2337 3.58724 11.3281 3.32031 11.3281ZM3.32031 8.98438C3.04688 8.98438 2.81576 8.88997 2.62695 8.70117C2.43815 8.50586 2.34375 8.27474 2.34375 8.00781C2.34375 7.74089 2.43815 7.51302 2.62695 7.32422C2.81576 7.12891 3.04688 7.03125 3.32031 7.03125C3.58724 7.03125 3.8151 7.12891 4.00391 7.32422C4.19922 7.51302 4.29688 7.74089 4.29688 8.00781C4.29688 8.27474 4.19922 8.50586 4.00391 8.70117C3.8151 8.88997 3.58724 8.98438 3.32031 8.98438ZM3.32031 6.64062C3.04688 6.64062 2.81576 6.54622 2.62695 6.35742C2.43815 6.16211 2.34375 5.93099 2.34375 5.66406C2.34375 5.39714 2.43815 5.16927 2.62695 4.98047C2.81576 4.78516 3.04688 4.6875 3.32031 4.6875C3.58724 4.6875 3.8151 4.78516 4.00391 4.98047C4.19922 5.16927 4.29688 5.39714 4.29688 5.66406C4.29688 5.93099 4.19922 6.16211 4.00391 6.35742C3.8151 6.54622 3.58724 6.64062 3.32031 6.64062ZM3.32031 4.29688C3.04688 4.29688 2.81576 4.20247 2.62695 4.01367C2.43815 3.81836 2.34375 3.58724 2.34375 3.32031C2.34375 3.05339 2.43815 2.82552 2.62695 2.63672C2.81576 2.44141 3.04688 2.34375 3.32031 2.34375C3.58724 2.34375 3.8151 2.44141 4.00391 2.63672C4.19922 2.82552 4.29688 3.05339 4.29688 3.32031C4.29688 3.58724 4.19922 3.81836 4.00391 4.01367C3.8151 4.20247 3.58724 4.29688 3.32031 4.29688Z" fill="white"/>
</svg>
