<svg xmlns="http://www.w3.org/2000/svg" width="18" height="18" fill="none" viewBox="0 0 18 18">
  <path fill="#F7F7F9" fill-opacity=".75" d="M8.23 3.194c.116 0 .393-1.022.438-1.301a.19.19 0 0 0-.08-.234.188.188 0 0 0-.242.044 8.85 8.85 0 0 0-.395 1.373c-.005.073.134.095.278.118Zm2.054 10.79s-.117 1.77-.095 1.887c.023.117.445.28.511.162a9.832 9.832 0 0 0 0-2.233c-.116-.14-.25.045-.416.184Zm-3.932 1.234a7.294 7.294 0 0 0 .117 1.747c.066.162.388-.028.505-.095a5.768 5.768 0 0 0 0-1.674c-.044-.28-.411-.045-.6.022h-.022Zm-1.016-2.88c.066 0 .438-.33.555-.492.117-.162.044-.486.044-.742 0-.257.44-.28.44-.28l.371.838.6.067.072.653a4.115 4.115 0 0 0-.21.765 1.307 1.307 0 0 0 .466 1.234c.233.279.438 1.166.627 1.211.19.045.9-.558 1.272-1.211.372-.654.117-1.675.183-1.675.067 0 0-.743 0-.743.172-.058.336-.137.49-.234.249-.162.621-.558.693-.558.226.317.412.66.556 1.021.044.162.138.117.344.095.205-.022 1.183-3.092 1.16-3.489-.022-.396-1.205-1.211-1.205-1.211a18.94 18.94 0 0 0 0-2.674C11.678 3.45 10.823.123 9.157.006c-1.667-.117-2.55 1.49-3.15 3.444a11.602 11.602 0 0 0-.344 4.142c-.558.334-1.093.707-1.6 1.117-.116.162-.088.368.212 1.183.304.84.666 1.657 1.083 2.446h-.022Zm5.942-2.563a13.7 13.7 0 0 0 .444-1.535l.667.63a3.127 3.127 0 0 1-.183.559c-.162.419-.622 1.58-.695 1.675-.072.095-.483-.653-.483-.653s.044-.067.272-.676h-.022ZM9.173 13.36a2.64 2.64 0 0 1-.738 1.278 3.049 3.049 0 0 0-.373-.815.806.806 0 0 1-.044-1.043c.289-.252 1.366-.213 1.177.58h-.022Zm0-.882c-.066-.028-1.272-.095-1.272-.095v-.514a9.298 9.298 0 0 1 1.367 0c0 .073-.023.631-.095.631v-.022ZM6.63 5.845c.066-2.579 1.11-4.79 1.87-4.98.594-.139 1.877.447 2.177 2.725.3 2.277.117 4.466-.277 5.538-.395 1.071-.906 1.836-1.061 1.836a9.798 9.798 0 0 1-1.666-.072A10.99 10.99 0 0 1 6.63 5.845Zm-.95 2.652c.164.548.288 1.108.372 1.675-.044.094-.65.792-.744.653a10.723 10.723 0 0 1-.555-1.77c.055-.123.883-.675.927-.558Zm2.266-1.954c1.022.837 2.06-.558 1.966-1.535a1.283 1.283 0 0 0-.563-.966 1.268 1.268 0 0 0-1.103-.15c-1.294.513-1.316 1.814-.3 2.651Zm.433-2.032a.702.702 0 0 1 .867.306.712.712 0 0 1 .094.32c.05.557-.522 1.305-1.11.842a.808.808 0 0 1-.398-.783.812.812 0 0 1 .547-.685Zm-.444 2.74c-.067-.323-.311-.373-.461-.245a.33.33 0 0 0 0 .48c.094.118.533.095.46-.234Zm1.11.174c-.066-.324-.31-.368-.46-.24a.324.324 0 0 0 0 .474c.105.118.544.095.472-.234h-.012Zm.417-.648a.324.324 0 0 0 0 .475c.117.117.555.095.489-.229-.067-.324-.328-.374-.478-.246h-.011Zm1.11-.664c-.066-.324-.31-.374-.46-.246a.33.33 0 0 0 0 .48c.127.118.566.09.494-.234h-.033ZM9.024 8.1c-.044 0-.216.246-.183.319.278.18.572.335.877.463.062 0 .073-.212.084-.29a1.993 1.993 0 0 0-.744-.492h-.034Zm-.505.676s-.317.184-.306.268c.35.311.735.578 1.15.793.117 0 .15-.095.161-.246.011-.15-.916-.793-.972-.815h-.033Zm-.605.62c-.078.044-.217.122-.228.217.317.367.692.678 1.11.921.117 0 .206-.14.267-.234.061-.095-1.072-.932-1.116-.904h-.033Z"/>
</svg>
