<svg xmlns="http://www.w3.org/2000/svg" width="17" height="19" fill="none" viewBox="0 0 17 19">
  <path fill="#E2E2E2" d="M4.65 2.095H2.687v1.033H.753V18.21h15.961V3.128H14.78V2.095h-1.963C11.98.74 10.54 0 8.737 0 6.927 0 5.493.746 4.65 2.095Zm.247.844h.252l.12-.219C6.12 1.17 7.624.844 8.737.844c1.114 0 2.618.327 3.467 1.876l.12.219h1.613v1.033h1.934v13.395H1.602V3.972h1.935V2.939h1.36Z"/>
  <path fill="#E2E2E2" d="M14.975 15.106H2.486v.465h12.49v-.465Zm.373.809H2.125v.465h13.223v-.465ZM8.587 4.919 2.343 7.15l.287.792s5.825-2.083 6.1-2.18c.276.097 6.102 2.18 6.102 2.18l.287-.792L8.73 4.867m5.384 8.93-.115-4.729c.04.017.08.029.127.029a.263.263 0 0 0 .189-.448h.212v-.465H2.945v.465h.213a.265.265 0 0 0-.075.184c0 .143.12.264.264.264a.31.31 0 0 0 .12-.029l-.114 4.724h-.437v.774h11.646v-.774m-8.793.005H4.432l-.115-4.723a.263.263 0 0 0 .31-.419h.947a.265.265 0 0 0-.075.184.267.267 0 0 0 .385.235l-.115 4.723Zm2.422 0H6.854l-.115-4.723a.267.267 0 0 0 .12.029.26.26 0 0 0 .264-.264.266.266 0 0 0-.074-.184h.953a.266.266 0 0 0-.075.184c0 .143.12.264.264.264.04 0 .08-.012.12-.03l-.12 4.724Zm2.422 0H9.276L9.16 9.074a.257.257 0 0 0 .115.023.263.263 0 0 0 .19-.448h.952a.266.266 0 0 0-.075.184.267.267 0 0 0 .385.235l-.115 4.73Zm2.416 0h-1.337l-.115-4.723a.26.26 0 0 0 .379-.235.266.266 0 0 0-.075-.184h.953a.265.265 0 0 0-.075.184c0 .143.121.264.265.264.04 0 .08-.012.114-.03l-.109 4.724Z"/>
</svg>
