<svg xmlns="http://www.w3.org/2000/svg" width="22" height="22" fill="none" viewBox="0 0 22 22">
  <g clip-path="url(#a)">
    <path fill="#fff" d="M10.941 1.82c.405 0 .733-.33.733-.736a.734.734 0 0 0-.733-.736.734.734 0 0 0-.732.736c0 .407.328.736.732.736Z"/>
    <path fill="#fff" d="M9.653 1.924a.734.734 0 0 0 .592-.853.735.735 0 0 0-.85-.596.734.734 0 0 0-.592.853c.071.4.452.667.85.596Z"/>
    <path fill="#fff" d="M8.302 2.254a.734.734 0 0 0 .546-.883.735.735 0 0 0-.88-.55.734.734 0 0 0-.547.882.735.735 0 0 0 .88.551Z"/>
    <path fill="#fff" d="M6.938 2.752a.734.734 0 0 0 .546-.883.735.735 0 0 0-.88-.55.734.734 0 0 0-.547.882.735.735 0 0 0 .88.551Z"/>
    <path fill="#fff" d="M5.706 3.474a.734.734 0 0 0 .487-.916.735.735 0 0 0-.914-.493.734.734 0 0 0-.488.917c.118.389.527.61.915.492Z"/>
    <path fill="#fff" d="M4.549 4.36a.734.734 0 0 0 .487-.917.735.735 0 0 0-.914-.492.734.734 0 0 0-.488.916c.118.39.527.61.915.492Z"/>
    <path fill="#fff" d="M3.568 5.396a.734.734 0 0 0 .488-.917.735.735 0 0 0-.915-.492.734.734 0 0 0-.488.916c.118.39.528.61.915.493ZM1.293 12a.734.734 0 0 0 .424-.947.735.735 0 0 0-.946-.429.734.734 0 0 0-.424.948c.144.38.568.572.946.429Z"/>
    <path fill="#fff" d="M1.328 10.566a.734.734 0 0 0 .424-.947.735.735 0 0 0-.946-.43.734.734 0 0 0-.424.948c.144.38.568.573.946.43Z"/>
    <path fill="#fff" d="M1.613 9.148a.734.734 0 0 0 .424-.948.735.735 0 0 0-.946-.429.734.734 0 0 0-.424.948c.144.38.568.572.946.429Z"/>
    <path fill="#fff" d="M2.055 7.823a.734.734 0 0 0 .487-.917.735.735 0 0 0-.915-.491.734.734 0 0 0-.487.917.735.735 0 0 0 .915.491Z"/>
    <path fill="#fff" d="M2.696 6.525a.734.734 0 0 0 .487-.917.735.735 0 0 0-.915-.492.734.734 0 0 0-.487.917c.118.389.528.61.915.492Zm8.735 15.235a.734.734 0 0 0 .424-.947.735.735 0 0 0-.946-.43.734.734 0 0 0-.424.948c.145.38.568.573.946.43Z"/>
    <path fill="#fff" d="M10.015 21.591a.734.734 0 0 0 .424-.948.735.735 0 0 0-.946-.428.734.734 0 0 0-.424.947c.144.38.568.572.946.429Z"/>
    <path fill="#fff" d="M8.625 21.275a.734.734 0 0 0 .424-.948.735.735 0 0 0-.946-.429.734.734 0 0 0-.424.948c.144.38.567.572.946.429Z"/>
    <path fill="#fff" d="M7.193 20.864a.734.734 0 0 0 .55-.88.735.735 0 0 0-.878-.555.734.734 0 0 0-.55.88c.09.397.483.645.878.555Z"/>
    <path fill="#fff" d="M5.916 20.25a.734.734 0 0 0 .55-.881.735.735 0 0 0-.877-.555.734.734 0 0 0-.55.88c.09.397.483.645.877.555Z"/>
    <path fill="#fff" d="M4.766 19.423a.734.734 0 0 0 .55-.88.735.735 0 0 0-.878-.555.734.734 0 0 0-.55.88c.09.397.484.645.878.555Z"/>
    <path fill="#fff" d="M3.797 18.431a.734.734 0 0 0 .437-.941.735.735 0 0 0-.94-.442.734.734 0 0 0-.437.942c.139.382.56.58.94.441Z"/>
    <path fill="#fff" d="M3.038 17.26a.735.735 0 0 0-.654-1.32.734.734 0 0 0-.33.986.737.737 0 0 0 .984.335Z"/>
    <path fill="#fff" d="M2.328 16.084a.733.733 0 0 0 .33-.984.735.735 0 0 0-.983-.335.734.734 0 0 0-.33.984c.18.365.62.515.983.335Z"/>
    <path fill="#fff" d="M1.77 14.794c.363-.18.51-.62.33-.984a.733.733 0 1 0-1.313.65c.18.364.62.514.983.334Z"/>
    <path fill="#fff" d="M1.427 13.401a.733.733 0 0 0 .33-.984.735.735 0 0 0-.984-.335.734.734 0 0 0-.33.984.735.735 0 0 0 .984.335Zm10.22-12.155a.734.734 0 0 1 .689-.777.735.735 0 0 1 .782.684.734.734 0 0 1-.69.777.734.734 0 0 1-.78-.684Z"/>
    <path fill="#fff" d="M13.074 1.462a.734.734 0 0 1 .764-.704.734.734 0 0 1 .709.759.734.734 0 0 1-.764.704.734.734 0 0 1-.709-.76Z"/>
    <path fill="#fff" d="M14.437 1.906a.734.734 0 0 1 .792-.672.734.734 0 0 1 .677.787.734.734 0 0 1-.791.672.734.734 0 0 1-.678-.787Z"/>
    <path fill="#fff" d="M15.726 2.605a.734.734 0 0 1 .765-.702.734.734 0 0 1 .707.76.734.734 0 0 1-.765.703.734.734 0 0 1-.707-.76Z"/>
    <path fill="#fff" d="M16.866 3.353a.735.735 0 0 1 .862-.579c.4.078.661.462.584.859a.735.735 0 0 1-.863.578.734.734 0 0 1-.583-.858Z"/>
    <path fill="#fff" d="M17.86 4.42a.735.735 0 0 1 .816-.645.734.734 0 0 1 .649.81.735.735 0 0 1-.815.645.734.734 0 0 1-.65-.81Zm2.449 6.37a.735.735 0 0 1 .907-.507c.392.11.62.514.512.903a.735.735 0 0 1-.907.507.734.734 0 0 1-.512-.903Z"/>
    <path fill="#fff" d="M20.235 9.403a.735.735 0 0 1 .899-.52.733.733 0 0 1 .526.894.735.735 0 0 1-.899.52.734.734 0 0 1-.526-.894Z"/>
    <path fill="#fff" d="M19.934 7.939a.735.735 0 0 1 .942-.438.734.734 0 0 1 .444.938.735.735 0 0 1-.942.438.734.734 0 0 1-.444-.938Z"/>
    <path fill="#fff" d="M19.368 6.84a.734.734 0 0 1 .796-.667c.405.035.706.39.672.792a.734.734 0 0 1-.797.667.734.734 0 0 1-.671-.792Z"/>
    <path fill="#fff" d="M18.73 5.52a.734.734 0 0 1 .832-.623.734.734 0 0 1 .628.828.735.735 0 0 1-.832.622.734.734 0 0 1-.627-.827Zm-6.84 15.476a.734.734 0 0 1 .639-.82.735.735 0 0 1 .823.634.734.734 0 0 1-.638.819.734.734 0 0 1-.824-.633Z"/>
    <path fill="#fff" d="M13.282 20.493a.735.735 0 0 1 .813-.646.734.734 0 0 1 .651.809.735.735 0 0 1-.813.646.734.734 0 0 1-.651-.81Z"/>
    <path fill="#fff" d="M14.638 19.911a.734.734 0 0 1 .842-.607.734.734 0 0 1 .613.838.735.735 0 0 1-.843.608.734.734 0 0 1-.612-.839Z"/>
    <path fill="#fff" d="M15.881 19.318a.734.734 0 0 1 .76-.709c.406.013.726.35.713.754a.735.735 0 0 1-.76.71.734.734 0 0 1-.713-.755Z"/>
    <path fill="#fff" d="M17.021 18.28a.735.735 0 0 1 .888-.538c.396.095.64.491.544.884a.735.735 0 0 1-.888.539.734.734 0 0 1-.544-.885Z"/>
    <path fill="#fff" d="M17.985 17.42a.734.734 0 0 1 .75-.718c.407.007.73.34.724.744a.734.734 0 0 1-.75.72.734.734 0 0 1-.724-.745Z"/>
    <path fill="#fff" d="M18.873 16.343a.734.734 0 0 1 .706-.761.734.734 0 0 1 .767.7.734.734 0 0 1-.706.762.734.734 0 0 1-.767-.7Z"/>
    <path fill="#fff" d="M19.496 14.97a.734.734 0 0 1 .808-.652c.405.042.7.402.658.804a.735.735 0 0 1-.808.652.734.734 0 0 1-.658-.803Z"/>
    <path fill="#fff" d="M20.024 13.503a.735.735 0 0 1 .944-.434c.382.14.579.561.44.94a.735.735 0 0 1-.945.434.734.734 0 0 1-.44-.94Z"/>
    <path fill="#fff" d="M20.378 12.042a.735.735 0 0 1 1-.283.734.734 0 0 1 .289.998.735.735 0 0 1-1 .282.734.734 0 0 1-.289-.997Z"/>
    <path fill="#fff" fill-rule="evenodd" d="m10.183 17.036-.369-.223c1.38-1.544-1.42-3.427-2.484-3.043-6.064-2.86-2.64-6.1-2.488-4.001-1.3-1.063-1.015 2.398 1.108 2.057-.175.703 2.063.942 3.526 1.895 1.139.742 1.714 2.236.707 3.315Zm-1.847.287c.122-.184.157-.215.343-.333-.597-.54-1.17-.276-.343.333Zm-1.844-.762-.488-.25-.014.292.496.326.006-.368Z" clip-rule="evenodd"/>
    <path fill="#fff" fill-rule="evenodd" d="M8 16.453c-.193.066-.28.1-.333.366-1.198-.508-.677-1.702.333-.366Zm-.65.474c-.18.026-.204.01-.3.163-.597-.49-.367-.837.3-.163Zm-1.125-1.315c.444.149.546.3.548.37v.409c-.18.021-.35-.162-.548-.346v-.433Zm-1.8-.175c.57 1.235 1.485 2.448 2.221 1.977.02-.013.016-.08-.082-.124-.35-.16-1.378-.56-2.139-1.853Z" clip-rule="evenodd"/>
    <path fill="#fff" fill-rule="evenodd" d="m5.851 16.233-.051.428c-.98-.785-1.644-1.814-2.05-2.889.628.894 1.191 1.737 2.101 2.461Zm4.919 1.777h.187a.05.05 0 0 1 .05.05v.824a.05.05 0 0 1-.05.05h-.188a.05.05 0 0 1-.05-.05v-.825a.05.05 0 0 1 .05-.05Z" clip-rule="evenodd"/>
    <path fill="#fff" fill-rule="evenodd" d="M11.091 17.385c-.837.194-2.258-1.099-2.532.247-.06.017-.16.025-.226-.04-1.102-1.112-2.088-.077-1.25.488.032-.206-.007-.386.058-.47.454-.578.942.822 1.439 1.018.4.158 1.093.062.914-.743-.478.247-.519-.01-.531-.081-.076-.439 1.408-.905 1.27 1.188l.342-.073.025-.79c.007-.212.122-.356.491-.336v-.408Zm.905-.349.37-.223c-1.38-1.544 1.42-3.427 2.484-3.043 6.063-2.86 2.64-6.1 2.488-4.001 1.3-1.063 1.014 2.398-1.109 2.057.176.703-2.063.942-3.526 1.895-1.138.742-1.713 2.236-.707 3.315Zm1.848.287c-.122-.184-.158-.215-.343-.333.596-.54 1.17-.276.343.333Zm1.844-.762.487-.25.015.292-.496.326-.006-.368Zm-.858.366c.18.026.203.01.3.163.596-.49.366-.837-.3-.163Zm2.924-1.49c-.57 1.235-1.485 2.448-2.221 1.977-.02-.013-.015-.08.083-.124.35-.16 1.377-.56 2.138-1.853Z" clip-rule="evenodd"/>
    <path fill="#fff" fill-rule="evenodd" d="m16.328 16.233.052.428c.979-.785 1.643-1.814 2.05-2.889-.629.894-1.192 1.737-2.102 2.461Zm-5.106 1.777h.188a.05.05 0 0 1 .05.05v.824a.05.05 0 0 1-.05.05h-.188a.05.05 0 0 1-.05-.05v-.825a.05.05 0 0 1 .05-.05Z" clip-rule="evenodd"/>
    <path fill="#fff" fill-rule="evenodd" d="M11.088 17.385c.838.194 2.258-1.099 2.532.247.06.017.16.025.226-.04 1.102-1.112 2.088-.077 1.25.488-.032-.206.008-.386-.058-.47-.453-.578-.942.822-1.439 1.018-.4.158-1.093.062-.913-.743.477.247.518-.01.53-.081.077-.439-1.408-.905-1.27 1.188l-.342-.073-.025-.79c-.007-.212-.122-.356-.491-.336v-.408Z" clip-rule="evenodd"/>
    <path fill="#fff" d="M8.283 7.163h-.616v3.912h.616V7.163Z"/>
    <path fill="#fff" fill-rule="evenodd" d="M7.903 14.324c-.175.123-.2.156-.274.356-.69-.366-.692-1.243.274-.356Zm-.369 1.168c-.129-.307-.009-.522.308-.354l.625.674c.224.416.011.523-.316.308l-.617-.629Z" clip-rule="evenodd"/>
    <path fill="#fff" fill-rule="evenodd" d="M7.684 14.892c-.227.084-.239.09-.342.308-.93-.553-.52-1.048.342-.308Zm-.379.616a.808.808 0 0 0-.415.18c-.68-.378-.332-1.194.415-.18Zm-1.257.577c-.398-.02-1.891-1.735-2.406-3.045.723.928 1.45 1.833 2.406 2.515v.53Z" clip-rule="evenodd"/>
    <path fill="#fff" fill-rule="evenodd" d="M3.392 11.625c.734 1.507 1.63 2.464 2.958 3.38v.424h-.258c-1.663-1.618-2.446-2.146-2.7-3.804Z" clip-rule="evenodd"/>
    <path fill="#fff" fill-rule="evenodd" d="M6.35 14.843c-1.624-1.356-2.783-2.467-3-4.113.742 1.621 1.606 2.606 3.288 3.817 0 .311.023.277-.288.296Z" clip-rule="evenodd"/>
    <path fill="#fff" fill-rule="evenodd" d="M3.784 9.272c-.708 1.693.761 3.336 3.177 4.6.074.322.104.407-.29.397-1.394-.704-4.216-3.664-2.887-4.997Zm12.348 6.813c.399-.02 1.891-1.735 2.406-3.045-.723.928-1.449 1.833-2.406 2.515v.53Z" clip-rule="evenodd"/>
    <path fill="#fff" fill-rule="evenodd" d="M18.788 11.625c-.734 1.507-1.63 2.464-2.958 3.38v.424h.258c1.663-1.618 2.446-2.146 2.7-3.804Z" clip-rule="evenodd"/>
    <path fill="#fff" fill-rule="evenodd" d="M15.83 14.843c1.624-1.356 2.783-2.467 3-4.113-.741 1.621-1.605 2.606-3.288 3.817 0 .311-.023.277.288.296Z" clip-rule="evenodd"/>
    <path fill="#fff" fill-rule="evenodd" d="M18.396 9.272c.708 1.693-.761 3.336-3.177 4.6-.074.322-.104.407.29.397 1.394-.704 4.216-3.664 2.887-4.997ZM7.367 9.21h-2v1.949h2V9.21Zm-1.317.633h.684v.7H6.05v-.7Z" clip-rule="evenodd"/>
    <path fill="#fff" d="M14 10.476H7.667v.6H14v-.6Zm2.592-1.865h-1.234v.558h1.234v-.558Zm-.001 1.857h-1.574v.607h1.575v-.607Z"/>
    <path fill="#fff" d="M16.592 8.611h-.617v2.464h.617V8.611ZM14.867 3.35h-.592v.617h.591V3.35Zm-.877.008h-.585v.607h.585v-.607Z"/>
    <path fill="#fff" fill-rule="evenodd" d="M14.516 4.45h-.562v1.24h-.47v-.838h-1.34v.852H8.978v1.472l-.439-.001v.304h1.07l-.014-1.254h1.68l.87-.003v.851l1.329-.001-.001-.858h1.041l.002-1.765Z" clip-rule="evenodd"/>
    <path fill="#fff" d="M11.252 3.8h-.627v3.322h.627V3.8Zm-.019-.8h-.616v.584h.616V3Z"/>
    <path fill="#fff" fill-rule="evenodd" d="M13.004 3.024h-.483c-.253 2.074-3.097 1.802-3.083 0H8.89c.156 2.514 3.808 2.73 4.113 0ZM9.529 16.208c-.166-1.166.592-1.053.454-.021 0 .003-.274.08-.41.059-.053-.009-.034.031-.044-.038Zm.088.536-.675.058c-.02-1.002.565-.452.675-.058Zm-.267-.77c-.237-.059-.361.011-.516.312-.61-1.008-.007-1.53.516-.312Zm.35-.928c-.322.117-.267.185-.35.508-.911-.798-.716-1.51.35-.508Z" clip-rule="evenodd"/>
    <path fill="#fff" fill-rule="evenodd" d="M8.638 14.26c-1.176-.622-.674.28-.054.478-.08-.264-.081-.323.054-.479Zm-.198 1.259c-.853-.748-.793-1.38.325-.431-.266.14-.268.136-.325.43Zm4.211.689c.166-1.166-.592-1.053-.454-.021 0 .003.274.08.41.059.053-.009.034.031.044-.038Zm-.088.536.675.058c.021-1.002-.565-.452-.675-.058Zm.267-.77c.237-.059.361.011.517.312.61-1.008.006-1.53-.517-.312Zm-.35-.928c.322.117.268.185.35.508.912-.798.716-1.51-.35-.508Z" clip-rule="evenodd"/>
    <path fill="#fff" fill-rule="evenodd" d="M13.542 14.26c1.176-.622.673.28.054.478.08-.264.08-.323-.054-.479Zm.638 2.193c.193.066.28.1.333.366 1.197-.508.677-1.702-.333-.366Zm-.44-.934c.853-.748.793-1.38-.325-.431.266.14.268.136.325.43Z" clip-rule="evenodd"/>
    <path fill="#fff" fill-rule="evenodd" d="M14.278 14.324c.175.122.2.155.274.356.69-.366.692-1.243-.274-.356Zm.369 1.168c.129-.307.008-.522-.309-.354l-.625.674c-.223.416-.01.523.317.308l.617-.629Z" clip-rule="evenodd"/>
    <path fill="#fff" fill-rule="evenodd" d="M14.496 14.892c.227.084.239.09.342.308.93-.553.52-1.048-.342-.308Zm.38.616c.19.035.258.065.414.18.68-.378.332-1.194-.414-.18Zm1.079.104c-.444.149-.546.3-.548.37v.408c.18.022.35-.162.548-.345v-.433Z" clip-rule="evenodd"/>
    <path fill="#fff" d="M14.892 7.18h-.609v3.006h.61V7.18ZM14 8.645h-.633v2.43H14v-2.43Zm-.942.815h-.625v1.274h.625V9.461Zm-1.803 0h-.625v1.274h.625V9.461Zm.919 0h-.625v1.274h.625V9.461Zm.876-.84h-.634v.616h.634V8.62Zm-.865 0h-.634v.616h.634V8.62Zm1.821-.741h-.633v.528h.633v-.528Zm-1.406.012h-.634v.516h.633v-.516Zm-1.372.036H9.05v.516h2.178v-.516Z"/>
    <path fill="#fff" d="M9.609 7.927h-.565v2.865h.565V7.927Z"/>
    <path fill="#fff" d="M9.389 9.232H8.034v.616h1.355v-.616Zm1.172-1.675h-.894v.201h.894v-.201Z"/>
  </g>
  <defs>
    <clipPath id="a">
      <path fill="#fff" d="M0 0h22v22H0z"/>
    </clipPath>
  </defs>
</svg>
